<svg xmlns="http://www.w3.org/2000/svg" viewBox="0 0 195.75 306.4"><defs><style>.cls-1{fill:#d83a77;}.cls-2{fill:#25263a;}</style></defs><title>Asset 2baloons</title><g id="Layer_2" data-name="Layer 2"><g id="Layer_1-2" data-name="Layer 1"><path class="cls-1" d="M80.76,273.49c-1.48.58-2.73,1.42-4.15,2.11a2.94,2.94,0,0,1-2.11.36c.06,0-.14-.11-.27-.24.13.13-.29-.54-.27-.5a5.2,5.2,0,0,1-.29-2.33,11.08,11.08,0,0,1,1.39-5,4.36,4.36,0,0,1,1.13-1.43.92.92,0,0,1,1,0,1,1,0,0,0,.5.1l.24.24c.41.45,1.21-.11.88-.65s-.07-.35-.34,0a.83.83,0,0,0,0-.9c-1.55-2-3.81-1.37-5.28.36a12.75,12.75,0,0,0-2.61,7.12c-.19,2.15.31,5,2.56,5.91,3.13,1.28,7.07-1.14,8.72-3.71A1,1,0,0,0,80.76,273.49Z"/><path class="cls-1" d="M107.52,265.29c-2.73-8.3-14-7.28-17.83-.59-.49.86.8,1.52,1.34.74,3.21-4.67,10.31-5.38,13.52-.4,2.87,4.46-3,4.66-5.83,4.58-1.71,0-8.09-1.65-9.11.15-1.43,2.52,4.51,2.23,5.63,2.32C100,272.5,110,273,107.52,265.29Z"/><path class="cls-1" d="M183.23,93.69c2.63-4.13,3.74-8.8,1.47-13.47-.19-.4-.83-.12-.73.29a13.77,13.77,0,0,1,.13,6,.6.6,0,0,0-.36.38,61.94,61.94,0,0,1-2.34,5.86c-2.91,4.37-7.48,8-11.51,10.88a.88.88,0,0,0,.92,1.5,46.11,46.11,0,0,0,5.82-4.18,40.61,40.61,0,0,1-11.88,11c1-.81,1.91-1.62,2.81-2.42.66-.58-.23-1.62-.94-1.16-9.31,6.16-19.36,15.21-31.4,12.57a.76.76,0,1,0-.42,1.46c10,2.72,19.65-2.4,27.6-8.57a.63.63,0,0,0,.78.44,24.32,24.32,0,0,0,3.83-1.5c-7.83,10.86-20.17,18.85-34,17.53-.8-.08-1,1.24-.19,1.36,14.2,2.14,29.93-6,36.26-18.93a.77.77,0,0,0-.19-1C175.57,107.9,180.56,101,183.23,93.69Z"/><path class="cls-1" d="M178.34,87.36a53.89,53.89,0,0,1-36,24.34c-.05,0,0,.09,0,.09a43.46,43.46,0,0,0,37.35-23.66A.79.79,0,0,0,178.34,87.36Z"/><path class="cls-1" d="M110.42,13.75a.73.73,0,0,0-1.45,0C108.35,30,104.8,43.76,96.9,58c-.57,1,.95,1.79,1.58.88C107.72,45.51,110.84,29.75,110.42,13.75Z"/><path class="cls-1" d="M116.3,16.92c-.17-.65-1.33-.53-1.24.16a58.52,58.52,0,0,1-1.74,21.32c-2,7.87-6,13.92-9.75,20.91-.5.95.68,1.66,1.44,1.06,5.6-4.49,8.34-13.3,10.22-19.94C117.36,32.91,118.26,24.56,116.3,16.92Z"/><path class="cls-1" d="M120.32,26.23c-2,7.76-2.54,15.77-3.68,23.68a80.38,80.38,0,0,1-2.52,11.59C113,65.44,110.82,69,109.5,72.85c-.29.84.92,1.43,1.49.83,5.25-5.54,6.87-14.13,8-21.41,1.34-8.56,1.57-17.27,2.75-25.85C121.86,25.62,120.51,25.49,120.32,26.23Z"/><path class="cls-1" d="M128.44,37.75a115,115,0,0,1-4.93,21.15c-2.31,7-6,13.21-9.28,19.74-.54,1.07.89,1.73,1.58.88,9.11-11.27,12.71-27.66,13.8-41.77C129.67,37,128.53,37,128.44,37.75Z"/><path class="cls-1" d="M131,45.08c-.1-.75-1.33-.79-1.27,0A70.73,70.73,0,0,1,116,93.19c-.77,1,1,2.24,1.8,1.33C129.44,81.51,133.32,62,131,45.08Z"/><path class="cls-1" d="M33.41,42.14C24.57,50.36,20.86,62,19.68,73.75c-.07.73,1.23.89,1.33.17,1.72-11.45,4.56-22.75,13-31.24C34.33,42.32,33.77,41.81,33.41,42.14Z"/><path class="cls-1" d="M35.39,39.26a30.93,30.93,0,0,0-7.45,5.18c2-2.18,4.07-4.28,6.11-6.35.47-.47-.26-1.12-.73-.7C27.16,43,21.17,48.78,16.74,55.84a28.87,28.87,0,0,1,4.73-9.18c.36-.46-.46-1-.81-.6a32.59,32.59,0,0,0-6.54,14.54,44.71,44.71,0,0,0-3.41,24.47c.15,1.17,2,1.25,2,0a83.56,83.56,0,0,1,.16-8.84c0,2.31,0,4.6,0,6.84a.82.82,0,0,0,1.64,0c0-5.83-.2-12.06.41-18.09a40.29,40.29,0,0,1,2.46-6.05A49.68,49.68,0,0,1,21,53c-4.44,7.19-6.89,15.75-6.09,23.41a.82.82,0,0,0,1.64,0c1.92-14,5.88-29,19.48-36.18C36.66,39.87,36,38.95,35.39,39.26Z"/><path class="cls-1" d="M37.79,38.76C27,52.15,23.87,73,24.66,89.75a1,1,0,0,0,2.06,0c1-17.19,1.84-35.8,12.2-50.35C39.42,38.7,38.28,38.16,37.79,38.76Z"/><path class="cls-1" d="M41.15,41.6c-7.1,17.09-6.51,36.65-5.71,54.81a.92.92,0,0,0,1.83,0c.74-18.36-1.25-36.83,5-54.52C42.47,41.21,41.41,41,41.15,41.6Z"/><path class="cls-2" d="M134.19,40a76.24,76.24,0,0,0-8.85-19.78C114.89,3.91,97.06-4.15,78.27,2.14,62.56,7.39,52.55,19,47.33,33.14a1,1,0,0,0-1.05-.36c-4.4.9-8.5-1-12.82-.4s-7.59,2.71-11.07,5A56.48,56.48,0,0,0,5.07,55.17C-2.78,68.43-.32,85.82,4.42,99.63c5.12,14.9,14.64,29,27.07,38.72a107.06,107.06,0,0,0,15.59,10.07,37.9,37.9,0,0,0,6.83,3c-5,3.25-11.36,10.13-7.65,14-3.37,3.3-5.32,8.45-1.38,12.34,2.3,2.27,7.6,3.75,8.08-.86.1-1-1.24-1.25-1.85-.73-2.18,1.87-3.78.61-5.06-1.49-2-3.29.84-6.51,3.23-8.43a1.27,1.27,0,0,0-.27-2c-4.29-2.35,4.34-9,8.19-12.21l.21,0a6.41,6.41,0,0,1,.07.78,12.85,12.85,0,0,1-.62,3.32,46.65,46.65,0,0,1-2.36,6.5c-.53,1.21,1.37,2,2.17,1.2s2.36-1.29,4-1.75c2.74,7.57,4.19,15.47,5.4,23.41,1.48,9.66,3.29,19.25,4.88,28.9,1.73,10.5,4.51,20.42,7.13,30.71,1.5,5.89,1.66,12,2.93,17.83-7-1.21-17.8-2.69-15.76,7.4.91,4.48,5.22,7.09,9.43,7.93a9.91,9.91,0,0,0,4.09-.13c-1.6,2.58-3,4.86-6.57,6.45a31.49,31.49,0,0,0-7.78,5c-4.7,4-7.58,10.15-5.62,16.21a.88.88,0,0,0,1.72-.22l2.31-2.79a.8.8,0,0,0,.58-.56,11.5,11.5,0,0,1,.36-1.55,27.84,27.84,0,0,0,.53,4.18c.17.78,1.36.56,1.39-.18.67-12.64,15.66-16.32,16.9-28.68a4,4,0,0,0,.51-.79h0v.19c-.26,3-.57,5.88-1.06,8.85-.52,3.19-1.46,6.5-1.29,9.76a.5.5,0,0,0,1,0c.4-3.5,1.22-6.87,1.86-10.31.36,3.43,1.11,6.77,3,9.34.62.86,2.37.39,1.93-.78-2.09-5.54-2.45-11.25-4-16.86a5.18,5.18,0,0,0,1.9-.37c.19,3,1.23,6.25,1.75,9.16.75,4.17,1.55,8.42,3.82,12.05.54.86,2.15.33,1.78-.71a92.93,92.93,0,0,1-3.44-11.91,49.74,49.74,0,0,0-1.52-6.36c2,2.39,5.23,4.1,7.47,5.85a57.07,57.07,0,0,1,5.79,4.93c3,3,2.71,6.66,2.31,10.53l-.4.06a.42.42,0,0,0,0,.82,8.13,8.13,0,0,1,2,.72,5.1,5.1,0,0,1,1.41,1.55c.34.44,1.22.37,1.19-.31a2.63,2.63,0,0,0-.42-1.35c4.15-4.3,2.34-10.25-1.5-14.08-4.79-4.78-12-6.61-16.83-11.28a14.72,14.72,0,0,0,10.61,2.13c5.09-.74,11.21-5.08,10-10.92-2.09-10.05-19-9.74-24.29-2.36.05-.53.12-1.06.16-1.59.23-1.3.5-2.58.73-3.83,1-5.05,1.76-10.08,2.55-15.17,2.15-13.69,5.68-27.09,9.53-40.39,3.67-12.67,7.71-25.23,12.29-37.61,1.6-4.33,5.12-10.84,4.66-16.09a12.61,12.61,0,0,0,1.87.83,1.37,1.37,0,0,0,1.68-.91,10.58,10.58,0,0,0-.36-4.83c-.06-.21-.12-.46-.19-.73a1.88,1.88,0,0,0,.72.12c.46,0,.92,0,1.38-.06,3.41,2.82-2.58,11,.54,14.88a8.89,8.89,0,0,0,2.31,2c-1.94,2.86-2.38,6.93.16,9.34a7.63,7.63,0,0,0,9.67.65c1.9-1.24,2.82-4.81.75-6.23a1,1,0,0,0-1,0c-1.77,1-2.73,3.55-2.8,5.62a6.75,6.75,0,0,1-5.51-2c-1-1.44-.85-4.59.3-6.73,1.94.55,3.89-.09,5-2.7.26-.62-.4-1.18-1-1.2a6,6,0,0,0-4.2,1.67,8.91,8.91,0,0,1-1.95-5.47,33.48,33.48,0,0,1,.8-4,11,11,0,0,0,.21-4.67,6.33,6.33,0,0,0-.51-1.37c34.08-2.69,69.34-29.05,71.76-64.82C197.61,49.79,158.64,14.3,134.19,40Zm-69,259.67c0-.78,0-1.57,0-2.41a.87.87,0,0,0-1.6-.41c-1,1.7-1.4,3.62-3,4.85a5.86,5.86,0,0,0-.69.63c-.19-6.78,5.94-12.54,11.67-15.6a34.21,34.21,0,0,0,6.09-3.54C73.95,288.95,67.58,293.08,65.18,299.69ZM98.88,283a32,32,0,0,1,7.67,6.34c2.6,3.25,1.32,6.21.33,9.6a3.28,3.28,0,0,0-.63-.28c3.67-8.74-3-12.86-9.58-17.05C97.43,282.09,98.17,282.54,98.88,283ZM108,265.73c1.43,4.71-3.63,7.68-7.4,8.62A10.91,10.91,0,0,1,89.43,271a5,5,0,0,0-.09-.94c3.57,2.27,8.13,1.75,12.26,1.09,3.26-.52,6.64-3.53,3.93-6.83-2.38-2.91-7-2-10.09-1-1.66.56-5,1.73-6.36,3.54a1.44,1.44,0,0,0-1.19.23,6,6,0,0,0-.75-.73l-.26-.17C90.26,259.12,105.51,257.65,108,265.73ZM90.7,267.66c3.07-2.3,7.85-3.66,11.32-3a2.3,2.3,0,0,1,2,2.64c-.29,1.63-3.6,2.05-4.86,2.19a20.43,20.43,0,0,1-4.85-.16A9.68,9.68,0,0,1,90.7,267.66ZM90,2.86c22.73-1.53,36.87,21.25,42.33,40.32,6.95,24.25-.32,51.39-17.49,69.67a51.56,51.56,0,0,1-23.5,14.3,1.16,1.16,0,0,0-.24-.17,111.1,111.1,0,0,1-15.6-8.42.74.74,0,0,0-.5-.32,64.61,64.61,0,0,1-17-16.15c-8.13-11.43-11.06-26.19-11.71-40C44.91,34.7,59.51,4.91,90,2.86ZM76.76,122.72a105,105,0,0,0,10.76,5.36l-1.08.22a1.32,1.32,0,0,0-1.06.81c-3.71.69-7.55,1.56-9.6,4.28A21.31,21.31,0,0,0,76.76,122.72ZM45.08,143.57a101.07,101.07,0,0,1-13.56-9.24c-11.18-9.06-19.28-22.09-24.29-35.44S.78,69.6,7.57,56.56c3.55-6.83,10.1-12.41,16.27-16.8,3.59-2.56,7.37-4.66,11.87-4.86,3.82-.17,7.26.79,11-.16A75.83,75.83,0,0,0,42.9,59c0,14.93,3.42,30.68,11.5,43.35,5,7.77,11.79,13.83,19.47,18.66.24,5.5,0,10.19-2.74,15.43-2.86,5.48-7.57,8.9-12.69,12a1.06,1.06,0,0,0-.36.37C53.6,148.9,48.59,145.57,45.08,143.57Zm15.56,11s0,.08,0,.12a1.34,1.34,0,0,0,.22.83c.07.31.15.63.23.94v.12l-.45.41a.91.91,0,0,0-.19-.52c0-.58,0-1.18,0-1.79a.87.87,0,0,0-.23-.57v0Zm19.7,112.53a15.47,15.47,0,0,0-6.74.06,3.93,3.93,0,0,0-2.47,5.71c1.59,2.79,6.48,2.29,9.28.23l0,.07a5.6,5.6,0,0,1-2,2.15c-1.48.8-3.51.45-5,0a7.41,7.41,0,0,1-5.74-7.44c.12-5.33,8.77-3.8,13.76-3,.08.31.15.62.24.92A4.58,4.58,0,0,0,80.34,267.08Zm-.75,1.66a3.91,3.91,0,0,0-.18,1.24,6.69,6.69,0,0,1-2.63,1.63c-.9.29-2.74.69-3.36-.31C72.22,269.35,76.81,268.9,79.59,268.73Zm6.72-33.11c-.6,6.11-.7,12.44-1.06,18.72-.67,3-1.42,6-1.87,9-1.74-6.83-1.88-14.12-3.62-21-2.62-10.33-5.21-20.28-6.94-30.82-1.46-8.88-3.25-17.7-4.73-26.58-1.33-8-2.89-15.86-6.12-23.28,2.3-.74,4.28-1.76,3.7-4.43-.43-1.95-2.49-3.77-3.81-5.13-.18-.18-.38-.41-.59-.65,2.89.32,5.1,3.66,5.74,6.32a.62.62,0,0,0,1.18,0c.78-2.42-1-5.11-2.65-6.73a6.43,6.43,0,0,0-3.48-1.83,28.34,28.34,0,0,0,12.41-12.71,10.36,10.36,0,0,0-.17,1.84c0,1.6,1.63,2.43-.42,4.25a6.18,6.18,0,0,0-2.46,3.76c-.64,2.51,1.3,4.27,3.21,5.54-3.61,4-5.34,9.25.07,11a6,6,0,0,0-.09,6c.44,1,2.23.53,2.12-.55a7,7,0,0,1,1.18-5.59c.62-.88-.26-1.82-1.13-1.88-6.84-.53-1-6.77.56-8.31a1.13,1.13,0,0,0-.24-1.81c-6.42-3.76,1.31-6.46.07-10.75-2-6.91,3.13-8.64,8.2-9.88a1.75,1.75,0,0,0,.62.9,18.8,18.8,0,0,1-5,4.68,1.07,1.07,0,0,0,.86,1.94,29.06,29.06,0,0,1,7.84-.39c1.32,9.63.06,20.11.07,29.82,0,11.24-.08,22.52-.59,33.76C88.61,212.45,87.44,224,86.3,235.63ZM109,143.5c1.82,1.45,3.52,3.1,5.43,4.41.52,3.56-1.7,8.23-2.78,11.33-1.58,4.52-3.21,9-4.8,13.54-4.38,12.47-8.21,25.09-11.8,37.81a332.39,332.39,0,0,0-7.81,32.68c.08-1,.17-2,.28-3,1.42-12.35,2.79-24.71,3.67-37.11.86-12,.78-24,.78-36.07,0-9.56,1.37-20.3-.55-29.74a36.29,36.29,0,0,0,6.77-.11c1.25-.17,1.09-1.71.31-2.28a60.32,60.32,0,0,1-6.06-5q1.07-.34,2.12-.72a15.36,15.36,0,0,1,4.64,3.28c2.66,2.56,2.19,5.67,1.78,8.87-.6,4.74-2.45,10.3-1,15,1.55,4.94,7.27,7,8.63,1a1.06,1.06,0,0,0-1.93-.78c-3.38,5.29-4.51-3.26-4.44-4.83.14-3.47,1.06-6.91,1.33-10.38s.22-6.16-1.82-9.11a11.8,11.8,0,0,0-4.82-4,56.85,56.85,0,0,0,15.39-9.71c-.67,5.66-.5,12,1.75,17.33a2.93,2.93,0,0,0-3-.8,3,3,0,0,0-1.78-1.55c-.26-2.06-2.48-3.47-4.35-3.77a1,1,0,0,0-1.25.67c-.15.49-.19,1-.34,1.47-.39,1.27,1.73,1.79,2,.54,0-.18.07-.35.09-.53a4.16,4.16,0,0,1,1.64,1.43,3.37,3.37,0,0,0-2.32,1.68.83.83,0,0,0,.52,1.23c1.43.22,3.07,0,3.71-1.11a1.17,1.17,0,0,1,.39,1.76c-.3.64.55,1.37,1.06.78a3.17,3.17,0,0,0,.63-1.09c1.53-1.92,4.11,1.7,4.45,3.4a.31.31,0,0,0,0,.11,11.86,11.86,0,0,0-6.32,1.29A1.33,1.33,0,0,0,109,143.5Zm82.77-60.74c-4.77,33.1-40.38,56.49-72,57.17h0c-5.89-5.73-6.27-14.83-6-22.7,11-10.2,18.47-24.41,21.89-39a76.07,76.07,0,0,0-.86-35.9,1.09,1.09,0,0,0,.24-.16c12.5-12.07,28.24-9.15,40.8,1.21C187.64,53.12,193.94,67.56,191.75,82.76Z"/><path class="cls-2" d="M162.07,44.75c-2.78-1.07-6-.43-8.84.25-1.66.4-3.29.92-4.92,1.42-.68.21-2.42,1.2-3.08,1.15-.93-.08-1.06,1.26-.21,1.51,1.89.57,4.12-.55,5.9-1.06,3.32-1,7.19-2.22,10.67-1.63A.85.85,0,1,0,162.07,44.75Z"/><path class="cls-2" d="M165,49c-6.41-.05-12.06,2.56-17.09,6.39-.63.48.23,1.49.84,1,5-3.68,10.32-5.38,16.4-6.39C165.78,49.92,165.6,49,165,49Z"/><path class="cls-2" d="M155.67,119.05c-5.72,1.69-11,5.14-17.07,5.6a.87.87,0,0,0-.24,1.71c2.75.85,6.14-.36,8.71-1.32a47.9,47.9,0,0,0,9.29-4.44A.85.85,0,0,0,155.67,119.05Z"/><path class="cls-2" d="M173.46,99.08c-6.27,4.31-12,8.62-19.92,9.06-.73,0-1,1.16-.18,1.3,7.94,1.41,15.87-3.45,21.62-8.49C176,100,174.58,98.31,173.46,99.08Z"/><path class="cls-2" d="M172.17,105.88c-5.55,3.12-10.38,8-17.05,8.48a.37.37,0,1,0,0,.74c6.73-.12,12.44-4.41,17.73-8.12A.64.64,0,0,0,172.17,105.88Z"/><path class="cls-2" d="M114.07,16.59a.48.48,0,0,0-.93.12c.21,7.21-2.37,13.43-5.13,19.93-.39.92,1.16,1.47,1.63.65C113.25,30.92,115.79,23.93,114.07,16.59Z"/><path class="cls-2" d="M118.06,24.22c-1.2,9.27-2.79,17.71-8.15,25.57-.68,1,1,2.16,1.7,1.25,6.37-7.75,7.38-17.13,7.83-26.82C119.49,23.34,118.17,23.39,118.06,24.22Z"/><path class="cls-2" d="M128.26,36.08c0-.84-1.42-1.09-1.58-.2-1.85,10-2.85,18.47-9.89,26.35a1.63,1.63,0,0,0,2.36,2.25C127.32,57.07,128.65,46.58,128.26,36.08Z"/><path class="cls-2" d="M31.85,39.62A84.76,84.76,0,0,0,23,59.15c-.37,1.19,1.44,1.57,1.88.49,2.64-6.48,5.4-12.93,8.5-19.2A.85.85,0,0,0,31.85,39.62Z"/><path class="cls-2" d="M35.89,42.44C32.22,50.28,29,58.28,27.8,66.91c-.12.91,1.41,1.06,1.64.21A186.13,186.13,0,0,1,37.27,43C37.59,42.22,36.24,41.71,35.89,42.44Z"/><path class="cls-2" d="M40.45,49.69c-4,10.05-7.78,20.12-9.59,30.8a1,1,0,0,0,1.88.49c3-10.32,6.28-20.56,9.38-30.86C42.43,49.08,40.83,48.73,40.45,49.69Z"/></g></g></svg>