<svg xmlns="http://www.w3.org/2000/svg" viewBox="0 0 83.86 177.86"><defs><style>.cls-1{fill:#d83a77;}.cls-2{fill:#25263a;}</style></defs><title>Asset 5drink</title><g id="Layer_2" data-name="Layer 2"><g id="Layer_1-2" data-name="Layer 1"><path class="cls-1" d="M42.41,103.54c-.22-.47-1-.22-1,.25-.49,18.62-1,37.43.6,56,.06.71,1.21.73,1.17,0-.48-9.65-.69-19.31-.71-29,0-4.51,0-9,.06-13.52q0-3.86,0-7.72c0-2.79.18-5.93.62-.46a.07.07,0,0,0,.14,0A10.31,10.31,0,0,0,42.41,103.54Z"/><path class="cls-1" d="M44.3,130.46c0-.4-.69-.4-.66,0,.57,6.44.66,12.9,1.26,19.33,0,.49.84.49.8,0C45.1,143.35,44.92,136.89,44.3,130.46Z"/><path class="cls-1" d="M78.26,68.53c.12-.38-.44-.48-.59-.15a23.75,23.75,0,0,1-2,3.7,22.13,22.13,0,0,0,2.48-5.58c.06-.2-.25-.27-.32-.08C73.44,77.9,62,82.52,51.2,86.09a.38.38,0,1,0,.21.73A44.56,44.56,0,0,0,66.5,81c-2.36,1.65-4.86,3.14-7.35,4.55-.32.18,0,.63.28.46a75.7,75.7,0,0,0,10.18-6.18,40,40,0,0,1-4.31,3.62c-.71.48-1.42,1-2.16,1.43l-.06.05a35.14,35.14,0,0,1-8.54,3.92.27.27,0,1,0,.15.52,29.25,29.25,0,0,0,12.36-6,34.26,34.26,0,0,1-11,8.2c-.24,0-.48,0-.72-.06s-.54.38-.31.54l-.55.25c-.22.1-.06.44.16.37.41-.14.81-.29,1.21-.45a16.72,16.72,0,0,0,7.77-.79,19.3,19.3,0,0,1-9.12,4.08c-.37.05-.27.65.09.61,5.26-.44,9.54-3.1,13.23-6.57a37,37,0,0,0,5.09-3.45c.4-.32-.13-.92-.54-.67l-1.45.9c1.43-1.62,2.77-3.32,4.06-5,.31-.41-.37-.84-.7-.51-2.61,2.6-5.08,5.53-7.78,8.11a19.56,19.56,0,0,1-9.29,2.69,30,30,0,0,0,11.69-9.8,26.23,26.23,0,0,0,8.63-9.21.3.3,0,0,0-.53-.29,30.86,30.86,0,0,1-3.59,4.49c.43-.57.84-1.15,1.24-1.74A19.07,19.07,0,0,0,78.26,68.53Z"/><path class="cls-2" d="M83.08,53.38c-2.35-4.59-9.47-6.06-14-7-14.64-3.1-30.79-3-45.63-1.32-7.09.78-19,2.9-21.94,10.29-.62-.74-2,0-1.43.9A14.34,14.34,0,0,0,1,57.47a11.29,11.29,0,0,0,0,3.33,1,1,0,0,0,.85.81C1.28,70.1.27,78.49,5.06,86.15A39.28,39.28,0,0,0,15.53,96.7c3.35,2.39,7.73,5.75,12,5.88a.76.76,0,0,0,.4-1.42l-.07,0a34.52,34.52,0,0,0,10,2,.39.39,0,0,0,0,.11c.18,1.08.34,2.16.48,3.25.09.8.18,1.6.26,2.4,0,2.85.07,5.71.2,8.58q-.61-6.5-1.44-13c-.07-.57-1-.58-.94,0,1.13,9.93,1.72,19.89,2.25,29.86-.31,6.39-.65,12.78-.6,19.16a12.21,12.21,0,0,0-3.44.35,22.12,22.12,0,0,0-6.8.54,16.23,16.23,0,0,0-11.15,6,7.83,7.83,0,0,0-1.41,2.55c-2,1.67-3.4,3.94-2,6.28,2.47,4.06,8.22,5,13,5.64,7.68,2.39,16.8,2.6,24.11,2.92,5.92.26,15.27.34,21-3.43,3.24-1.33,5.71-3.38,6.52-6.53.92-3.56-.12-6-2.26-7.6-3.82-6.73-14.76-7.28-22.65-7.12v0c.24-8.12.52-16.23.66-24.35a193.72,193.72,0,0,0-.54-22,29.22,29.22,0,0,0-.6-4.93,19.89,19.89,0,0,0,4.92-.24,1.23,1.23,0,0,0,.32,0l.19-.06a27.61,27.61,0,0,0,9.18-3.77.67.67,0,0,0,.26-.29A28.15,28.15,0,0,0,78,85.91,34.43,34.43,0,0,0,81.65,78a.76.76,0,0,0-.68-.95c.33-1.51.58-3,.78-4.59a37.65,37.65,0,0,0,1.12-11.85A8,8,0,0,0,83.08,53.38ZM3.83,60.32l.6.47a24.86,24.86,0,0,0-.81,5.93A24.33,24.33,0,0,1,3.83,60.32Zm21,39c-1.18-.6-2.39-1.16-3.6-1.74a9.94,9.94,0,0,1-3-3.15s-.11,0-.09,0a6.74,6.74,0,0,0,1.29,2.18c-.56-.3-1.11-.62-1.64-1A42.39,42.39,0,0,1,6,84.09c-3.09-4.53-3.69-9.58-3.52-14.93,0-.65.06-1.32.11-2,1.12,16.66,18.74,32.52,34.9,33.56.05.27.1.54.15.81C33.65,101,28.87,100.74,24.88,99.36Zm1.17,58a21.45,21.45,0,0,1,2.15-.53,29.08,29.08,0,0,0-2.73,2c-.64.1-1.27.22-1.9.37A9.67,9.67,0,0,1,26,157.33Zm-6.89,9.42a3.82,3.82,0,0,1-.14-3.9l.28-.17.17-.09c0,.11-.06.21-.08.33a.86.86,0,0,0,1.45.78A12.37,12.37,0,0,0,19.16,166.75Zm1.78-3.18a.91.91,0,0,0,.12-.21,14,14,0,0,1,.84-1.85c.34-.12.7-.21,1-.32-.52.55-1,1.11-1.45,1.65C21.3,163.09,21.11,163.33,20.93,163.57ZM53,155.86c4.19,0,10,.1,14.49,1.6a69.23,69.23,0,0,0-14.53.2C53,157.06,53,156.46,53,155.86Zm26.67-83a52.81,52.81,0,0,1-10.06,17,.82.82,0,0,0,.72,1.36,29.75,29.75,0,0,1-18.12,7.46.42.42,0,1,0,0,.85,23.57,23.57,0,0,0,4.57.09,1,1,0,0,0-.33.56,22.45,22.45,0,0,1-4.29.36,2.42,2.42,0,0,0-1.95-1.53.09.09,0,0,0-.09.11c2.1,10.56,1.17,22.12.91,32.83-.17,7.09-.45,14.17-.7,21.26a1.35,1.35,0,0,0-.14,2.4c-.35,3.77-1.23,9.2.38,12a1.16,1.16,0,0,0,2.06-.26c.66-1.58.25-3.72.26-5.41,0-.57,0-1.14,0-1.71,4.26-.52,14.77-1.41,20,1a9.31,9.31,0,0,1,.85,1.52,9.42,9.42,0,0,1,.16,4.85c-1.38,7-16.06,5.28-21.06,5.43a.69.69,0,0,0-.53,1.15h-1l-1.87-.09c-7.42-.31-15.4-1-22.56-3a22,22,0,0,1-5.13-2.09c0-.05,0-.1,0-.16-.07-2.18,2.13-4.44,3.5-5.87a28.85,28.85,0,0,1,3.09-2.77,45.65,45.65,0,0,1,8.44.47c.33,0,.62-.39.25-.57a16.92,16.92,0,0,0-6.21-1.63,24.25,24.25,0,0,1,7.24-3.11,101.54,101.54,0,0,0,1.06,13.12c.08.51.89.3.81-.21-.29-2-.49-3.94-.63-5.91.4.17.89.09,1-.45a125.62,125.62,0,0,0,1-15.95c.28,2.59.56,5.18.82,7.75a.73.73,0,0,0,1.45,0c.81-9.81-.73-19.68-2.24-29.53-.12-3.33-.34-6.66-.74-10a84.72,84.72,0,0,0-1.12-11.27c.28,0,.57,0,.85-.08a.51.51,0,0,0,0-1l-1.08-.19c-.07-.34-.13-.69-.2-1a1,1,0,0,0-.2-1.93,40.2,40.2,0,0,1-13.14-4.07,26.14,26.14,0,0,0,3.14.57.85.85,0,0,0,.24-1.67C12.61,90.78,4.5,76.89,5,61.21a41.92,41.92,0,0,0,8.43,4.36,96.23,96.23,0,0,0,23.42,5.79c13.24,1.77,31.3,2.64,42.43-6.27a13.51,13.51,0,0,0,1.27-1.16C80.38,66.92,80.12,69.91,79.68,72.88Zm1-15.46c-1.12,6.16-8.79,8.86-14,10.19-7.84,2-16.16,1.95-24.18,1.5a104.54,104.54,0,0,1-24.76-4.39C13.36,63.35,8,61.51,4.28,58.3c3.32-7.56,11.12-9.06,19.23-10a176,176,0,0,1,20.33-.94C49.41,47.36,82.62,46.78,80.68,57.41ZM58.07,51.26a20,20,0,0,0-7.66-2.17,38,38,0,0,0-18.17,3.45l-.79.22a.37.37,0,0,0-.28.29,35.06,35.06,0,0,0-4.4,2.55s0,0,0,0l-3.3,1.1a.43.43,0,1,0,.24.82l4-1.19a.46.46,0,0,0,0,.26,9.87,9.87,0,0,0,2.23,3.61,76.48,76.48,0,0,1-10.49-3.82c.9-3.09,5.39-5.1,8.25-5.55.47-.07.35-.81-.11-.79-3.11.14-6.36,1-8.37,3.53A7.26,7.26,0,0,0,18,55.78l-.35-.16c-.26-.12-.5.24-.24.39l.45.25a6.45,6.45,0,0,0,.21,4C20.45,66.34,28,65,33,62.51a21.09,21.09,0,0,0,11.66,1.64A32.42,32.42,0,0,0,59.87,61a.61.61,0,0,0-.49-1.1,37.17,37.17,0,0,1-5.92,1.71,15.16,15.16,0,0,0,3.87-2.7c.5-.5-.19-1.35-.77-.95a27.77,27.77,0,0,1-12.94,4.47,53.69,53.69,0,0,1-8.69-1h0l.38-.25a.81.81,0,0,0-.85-1.39c-.44.23-.93.48-1.45.73a11.44,11.44,0,0,1-4.31-4.3.46.46,0,0,0-.11-.12c9.29-2.74,20.57-5.43,27.83,1.5a.64.64,0,0,0,.93-.88c-6.42-7.68-18.27-5-27.63-2q1.93-.9,4-1.62c9.59-2.23,19.7-2.41,27.5,4.47a.53.53,0,0,0,.4.12c.49,1.17.89,2.41,1.32,3.69a.69.69,0,0,0,1.33-.17,10.19,10.19,0,0,0-4.82-9.08c3,.09,6.13,1.22,7.36,4.16,1.64,3.9-3.08,6.22-6.05,7a.61.61,0,1,0,.34,1.16c4-.88,8.77-3.7,6.95-8.49C66.51,52,61.89,50.92,58.07,51.26ZM19.86,59.77A4.49,4.49,0,0,1,19.29,57a70,70,0,0,0,11.08,4.64C26.51,63.08,22,63.71,19.86,59.77Zm39.66-5.49c-3.34-2.7-7.78-3.74-12.39-3.85a20.34,20.34,0,0,1,9.8,1.91A8.69,8.69,0,0,1,59.52,54.28Z"/><path class="cls-2" d="M50,31.29a8.67,8.67,0,0,0-5-.54,1.16,1.16,0,0,0-1.67.15c-.16.19-.31.39-.45.59a4.65,4.65,0,0,0-1.29,1,.92.92,0,0,0,.09,1.37,4.22,4.22,0,0,0,1.72,5.06c2.13,1.45,5.46,1.62,7.33-.35C52.7,36.41,52.89,32.67,50,31.29Zm-.91,5.5c-.74,1.36-2.75,1.09-3.87.5-1.62-.86-1.42-2.38-.66-3.67a12.85,12.85,0,0,1,3.24-.36C50.15,33.37,50,35.06,49.06,36.79Z"/><path class="cls-2" d="M65.26,16.93c-1.86-3.24-6.44-2.23-8.65,0A1.2,1.2,0,0,0,57.34,19a5,5,0,0,0-.82,3.68c.74,3.43,5.43,3.55,7.66,1.61A6.14,6.14,0,0,0,65.26,16.93Zm-2.46,5.31c-.86,1.43-3.79,1.83-4.31-.08-.46-1.66,1-3.34,2.52-4.43a1.67,1.67,0,0,1,1.86.54A3.74,3.74,0,0,1,62.79,22.24Z"/><path class="cls-2" d="M50.36,3.14A13.6,13.6,0,0,0,41.71,0a.56.56,0,0,0-.3,0l-.14,0a12.06,12.06,0,0,0-9.58,4.44c-.87,1.15.82,2.43,1.89,1.8h0a10.15,10.15,0,0,0-.54,5.44c1.19,7,8.84,7.2,14.05,5C53.07,14.1,55.74,7.81,50.36,3.14Zm-4.73,11.1c-3.94,2-8.81,1.62-10-3.2a7.85,7.85,0,0,1,1.31-6.49c3.25-1.4,6.52-1.81,10.12.11A5.74,5.74,0,0,1,50.34,9C50.5,11.61,47.55,13.26,45.63,14.24Z"/></g></g></svg>