<svg xmlns="http://www.w3.org/2000/svg" viewBox="0 0 270.29 159.81"><defs><style>.cls-1{fill:#d83a77;}.cls-2{fill:#25263a;}</style></defs><title>Asset 9flags</title><g id="Layer_2" data-name="Layer 2"><g id="Layer_1-2" data-name="Layer 1"><path class="cls-1" d="M66,81.85A1.59,1.59,0,0,0,66.15,80c-.76-1-2.59-1.32-3.76-1.59a1,1,0,0,0-1.27.92c0,.31,0,.62,0,.93l0,.05a2.64,2.64,0,0,0-.24,1.48,4.34,4.34,0,0,0-1.48,1.1A.85.85,0,0,0,59.48,84a1.58,1.58,0,0,0,1.54.44v.27a.94.94,0,0,0,.18.55c.12.59.27,1.18.41,1.76a1.26,1.26,0,0,0,2.24.28,6.94,6.94,0,0,0,.81-1.8,2.12,2.12,0,0,0,.87-.54,1,1,0,0,0,.37-.62h0a1.07,1.07,0,0,0,0-.21Q66,83,66,81.85Z"/><path class="cls-1" d="M66.38,57.91a1.31,1.31,0,0,0-.3-.44,1.54,1.54,0,0,0-2.2-.09,8.6,8.6,0,0,0-1.57,3,1.07,1.07,0,0,0,.91,1.4l0,.07a1.06,1.06,0,0,0,1.78,0,3.34,3.34,0,0,0,.23-.71,1.3,1.3,0,0,0,1.08-.28,1.16,1.16,0,0,0,.36-1,.72.72,0,0,0,.1-.11,1.44,1.44,0,0,0,.11-.6A.83.83,0,0,0,66.38,57.91Z"/><path class="cls-1" d="M84.23,68l-.15-.12.58-.29a1,1,0,0,0-.53-1.88l-.55,0c0-.11,0-.22,0-.34,0-.55-.58-.87-1-.76a6.66,6.66,0,0,0-2.17.75l-.18.12a1.07,1.07,0,0,0-.71.16,1.43,1.43,0,0,0-.49.59c-.23.13-.45.26-.69.38-.83.4-.43,1.48.33,1.62a3.94,3.94,0,0,0,.21,2.44c.64,1,1.68.63,2.63-.18h0c1.12.43,3.1.92,3.64-.58C85.44,69.17,84.76,68.44,84.23,68Z"/><path class="cls-1" d="M131.79,90.74a1.14,1.14,0,0,0,.09-1.18l.09-.23a1.06,1.06,0,0,0-.51-1.2h0a1.13,1.13,0,0,0-1.35.17,6,6,0,0,0-.8,1.33l0,.06-.3.67c-.53.7-1,1.42-1.61,2.08a1.13,1.13,0,0,0-1.15,0c-.28.17-.67.5-1.08.81a1.35,1.35,0,0,0-.05-.13c-.63-1.15-4.31-3.91-5.35-2.28-.62,1-.51,4.15.13,5.13l.07.08a1.17,1.17,0,0,0,1.5.47,3.55,3.55,0,0,0,.45.4A1.8,1.8,0,0,0,123,98.42c1.21.33,2-1.1,2.25-2.6l.28-.16a1.35,1.35,0,0,0,.7.69,1.25,1.25,0,0,0,1.43-.18,35.48,35.48,0,0,0,4-4l0,0h0l.19-.23A.93.93,0,0,0,131.79,90.74Z"/><path class="cls-1" d="M21.15,49.95c-2-5.34-5.85-9.75-7.58-15.27a.12.12,0,0,0-.23.06,50.85,50.85,0,0,0,7.12,15.48C20.68,50.55,21.31,50.35,21.15,49.95Z"/><path class="cls-1" d="M30.78,44.54c-3-9.11-8.78-17-10.23-26.61-.07-.48-.9-.37-.87.11.57,9.64,5.76,18.45,9.86,27C29.86,45.7,31,45.25,30.78,44.54Z"/><path class="cls-1" d="M35.4,34.37c-4.17-9.09-9.69-17.56-12.75-27.13-.2-.63-1.23-.38-1,.27C24.46,17.28,29.77,26,34.18,35,34.56,35.83,35.77,35.17,35.4,34.37Z"/><path class="cls-1" d="M183.74,126.85c-1.71-2.25-4-4-5.81-6.27a60.14,60.14,0,0,1-5.1-7.6.81.81,0,0,0-1.42.79,46.42,46.42,0,0,0,5.16,8.71c1.55,2.09,3.35,4.53,5.66,5.81C183.09,128.75,184.45,127.77,183.74,126.85Z"/><path class="cls-1" d="M191.48,124.33c-2.74-4.31-7.12-7.76-10.55-11.54a93.75,93.75,0,0,1-12.18-16.43c-.38-.66-1.64-.22-1.33.53,2.3,5.56,5.9,10.32,9.68,15s8.19,10.25,13.28,13.52C191,125.78,191.9,125,191.48,124.33Z"/><path class="cls-1" d="M199.48,119c-2.59-3.8-6.84-6.63-10.23-9.68-4-3.58-8-7.48-10.41-12.33-.39-.79-1.86-.24-1.5.6,1.88,4.43,5,8,8.36,11.34,3.88,3.83,8.12,8.12,12.7,11.11C199,120.45,199.93,119.65,199.48,119Z"/><path class="cls-1" d="M207,109.54c-2-2.65-4.81-4.67-7.21-6.91s-4.8-4.7-7.07-7.18c-.75-.82-2,.33-1.26,1.2q3.2,3.91,6.67,7.56c2.24,2.37,4.56,5.1,7.42,6.71C206.41,111.38,207.69,110.43,207,109.54Z"/><path class="cls-1" d="M250.62,113.25c-.12-.63.13-1.44-.34-1.93a.45.45,0,0,0-.61,0,13.09,13.09,0,0,0-3.93,6,7.62,7.62,0,0,1-.68-1.52,1,1,0,0,0-1.87,0,8.83,8.83,0,0,1-1.49,2.52l-1.38-2.75a1,1,0,0,0-1.56-.19c-.82.89-1.58,1.83-2.33,2.77,0,0,0-.07,0-.1,0-.88-1.38-1.33-1.8-.47s-.79,1.63-1.19,2.45c-.17-.36-.35-.72-.56-1.06a.9.9,0,0,0-1.44-.07c-.32,0-.64.25-.49.62a7.6,7.6,0,0,1,.33,1.13.81.81,0,0,0,.79.58,13.7,13.7,0,0,0,.61,1.26.94.94,0,0,0,1.58,0l1-1.95a2.26,2.26,0,0,0,.38.31,1,1,0,0,0,1.33-.33c.74-.92,1.49-1.83,2.26-2.73l1.36,2.75a1,1,0,0,0,1.58.19,13.51,13.51,0,0,0,1.89-2.39,5,5,0,0,0,1.39,1.7,1,1,0,0,0,1.61-.4,39.81,39.81,0,0,1,2.14-5.59,9.58,9.58,0,0,0,.19-.94,4,4,0,0,0,.3.53A.52.52,0,0,0,250.62,113.25Z"/><path class="cls-1" d="M253.34,101.64a1.55,1.55,0,0,0-.42.11h0c-.25-.14-.46-.35-.69-.51a.16.16,0,0,0-.24.1.46.46,0,0,0-.51-.48c-1.75.19-3.32,2.77-3.09-.15.06-.83-1-1.05-1.55-.61-2.54,2.17-3.18.19-5.68.85a9.63,9.63,0,0,0-2.86,1.71c-1.72,1.3-1,1.33-2.14.23a2,2,0,0,0-2.88,0c-.39.37-.77,1.11-.43,1.57a4.24,4.24,0,0,0-1.43-1.41,1.24,1.24,0,0,0-1.64.41,13.23,13.23,0,0,0-1.2,2.2c-.37-.64-.71-1.3-1.06-2a.82.82,0,0,0-1.5.6,13.34,13.34,0,0,0,1.8,4.34,1.18,1.18,0,0,0,2,0c.44-.89.83-1.82,1.29-2.7a4.59,4.59,0,0,0,1.12,1.13,1.23,1.23,0,0,0,1.45-.18,4.07,4.07,0,0,0,1.31-2.09c-.24.68.66,1.23,1.24,1.6a1.24,1.24,0,0,0,1.45-.18c1.49-1.33,3.38-3.58,5.7-2.52A3.8,3.8,0,0,0,245,104a2.47,2.47,0,0,0,1.79-.89,1.07,1.07,0,0,0,.47.35c2.68,1.07,2.54-.49,4.5-1.66a.52.52,0,0,0,.24-.42.12.12,0,0,0,0,.05,4,4,0,0,1,.34.83.79.79,0,0,0,.37.48.82.82,0,0,0,1.2-.61A.44.44,0,0,0,253.34,101.64Z"/><path class="cls-1" d="M244.43,136.71a.75.75,0,0,0-.19-.57,20.64,20.64,0,0,0,.23-2.77c0-1.08-1.75-1.33-2-.25s-.39,2.14-.53,3.21a10,10,0,0,1-.35-1.62.82.82,0,0,0-1.63,0c0,.18-.06.35-.09.53-.21-.89-.26-1.85-.5-2.68a.61.61,0,0,0-1.18.31c.42,1.75.13,3.39,1.29,4.86a.9.9,0,0,0,1.08.22,13.06,13.06,0,0,1,.48,2.76,1,1,0,0,0,.33.71,1.12,1.12,0,0,0,.91,1.19c-.05.48-.1,1-.17,1.43-.09.74,1.07.8,1.29.17a14,14,0,0,0,.53-2.12,1.26,1.26,0,0,0,.24-.72A33.3,33.3,0,0,0,244.43,136.71Z"/><path class="cls-2" d="M267.63,89.68c-9.17,5-20.68,6-30.86,6.69-11.29.81-22.71-.29-33.93-1.64a330.07,330.07,0,0,1-73.49-18.06C106,68.17,84.61,56.19,63.91,42.48,53,35.28,42.61,27.3,33.55,17.83,29.19,13.29,27,8.59,24.91,2.77,24.14.63,22.9,0,20.76,0c0,0-.08.06,0,.09,2.81,2.24,3,6.52,4.43,9.63,2.53,5.5,6.51,9.59,10.77,13.78,9,8.91,19.52,16.32,30,23.28a348.87,348.87,0,0,0,38,22,.49.49,0,0,0-.06.24c0,.16,0,.32,0,.48h0a.13.13,0,0,0-.06.24c-1.37.8-2.72,1.63-4.06,2.49a.4.4,0,0,0-.23,0c-8.26,4.7-16.65,9.2-24.38,14.77-7.54,5.44-14.1,12.13-21.42,17.85-.85-21.37,1.8-42.67,1.51-64A.92.92,0,0,0,53.92,40c-3.07,1.78-6.21,3.46-9.4,5.07a100,100,0,0,0-14.63-26,.33.33,0,0,0-.57.32c4.15,8.68,7.62,18.86,13.11,26.77-7,3.43-14.15,6.53-21.34,9.55a78.9,78.9,0,0,1-4.34-9.28A88.67,88.67,0,0,0,13.41,38c.6-1.71,1.2-3.43,1.76-5.15.47-1.44.94-2.92,1.4-4.41,1.3,7.95,5.85,16.66,10.43,23,.59.83,2.05.38,1.77-.72-.92-3.55-2.92-6.68-4.67-9.85A83.49,83.49,0,0,1,18,27.43a.85.85,0,0,0-.93-.51c2.54-8.53,4.5-17.81,3.1-26.41C20-.16,19,.05,19,.65,17.19,23.69,8.88,44,.09,65.07c-.48,1.14,1,1.71,1.83,1.36C8.17,63.69,14.38,61,20.57,58.18c.3.36.6.72.92,1.05a.63.63,0,0,0,1-.75l-.48-1c7.33-3.31,14.62-6.72,21.83-10.31a1.15,1.15,0,0,0,.89-.44c2.91-1.46,5.81-2.93,8.7-4.46-.58,21.67-3,43.33-2.09,65a1.29,1.29,0,0,0,1.93,1.07c7.68-5.6,14.42-12.36,21.85-18.29,7.82-6.24,17.73-9.92,24.78-17.06,1.38-.73,2.75-1.48,4.12-2.22.36,10.34,2.72,20.88,5.29,30.8C112,112,111.06,123,114,133.42a1.21,1.21,0,0,0,2,.51c6.82-7.58,13.48-15.22,20.65-22.47,3.4-3.44,6.67-7,10.21-10.28,2-1.85,4-3.62,6.09-5.37s5.11-5.64,6.68-1.65A264.58,264.58,0,0,1,169,122c2.73,10.1,5.16,20.29,9,30.05a1.52,1.52,0,0,0,2.88,0c1.69-5.72,5.19-10.76,8.84-15.49a.44.44,0,0,0,.22-.2c.05-.1.12-.2.17-.31l2.26-2.89c1.61-2,3.15-4.17,4.67-6.32,1.13-1.31,2.25-2.62,3.22-3.94,5.29-7.17,8.66-15.44,14.31-22.38,9.91,19.14,20,37.9,27.61,58.15a1.62,1.62,0,0,0,3.15-.41c2-22.08,10.25-45.09,21.2-64.18,0,0,0-.06,0-.09,1-.43,1.91-.88,2.83-1.38C271.44,91.55,269.58,88.62,267.63,89.68ZM3.57,63.08C6.79,55.25,10,47.42,12.89,39.45c1.49,5.74,3.22,12.19,6.42,17C14,58.66,8.77,60.84,3.57,63.08Zm202.62,46c-.58-1.85-2.71-3.42-4-4.69a68.57,68.57,0,0,0-5.65-4.8c-.73-.57-1.85.36-1.09,1.06,1.63,1.53,3.21,3.13,4.71,4.79s2.86,4.26,4.8,5.06a1.19,1.19,0,0,0,.41.08c-2,3.56-3.92,7.17-6,10.7a31.77,31.77,0,0,1-2.47,3.57c-2.46,2.82-5,5.59-7.38,8.55a108.16,108.16,0,0,0-9.8,14.71c-3.37-9.41-5.7-19.16-8.31-28.81-1.05-3.89-2.15-8-3.5-12.05a119,119,0,0,0,8.48,11.88c3,3.65,7,8.17,11.61,9.6a1.08,1.08,0,0,0,1.08-1.79c-3.6-3.31-7.56-5.83-10.87-9.57-3.52-4-6.5-8.39-10.05-12.34a.69.69,0,0,0-1,0,48.71,48.71,0,0,0-8-14.86.51.51,0,0,0-.7,0c-3.4,3.12-7.56,5.6-11.11,8.6-4.21,3.55-8.34,7.26-12.25,11.14-6.68,6.62-13,13.73-19.34,20.73-2.15-9.08-2.08-18.54-3.78-27.71-1-5.64-2.83-11.16-4-16.79-1.06-5.32-1.67-10.72-2.69-16l.72-.39q12.77,6.18,26.17,11.18A319.71,319.71,0,0,0,204.71,98.3q4,.48,8,.83A89.3,89.3,0,0,0,206.19,109.12Zm44,13.68c-.24-.54-.51-1.07-.77-1.6-.5-1-2-.46-2.05.54a13.37,13.37,0,0,1-1.84,5.46,29.64,29.64,0,0,1-2.46-5.76,1.15,1.15,0,0,0-2.18,0,44,44,0,0,0-1.14,6.27,10,10,0,0,1-2.58-4.47,1.15,1.15,0,0,0-2.07-.26,16.4,16.4,0,0,0-1.73,6.55c0,1.21,1.74,1.14,1.88,0a14,14,0,0,1,.79-3,14,14,0,0,0,4.16,4.63,1.2,1.2,0,0,0,1.8-1,39.51,39.51,0,0,1,.4-4.37c.7,1.45,1.46,2.87,2.18,4.31a1.11,1.11,0,0,0,1.87,0,46.09,46.09,0,0,0,2.27-4.68.84.84,0,0,0,.46.35A155,155,0,0,0,243,151.81,359.18,359.18,0,0,0,225.4,115a1.33,1.33,0,0,0,.72-.73,15.77,15.77,0,0,1,1.83-3.52,30.35,30.35,0,0,0,7.49,5.44c.72.37,2,0,1.9-1.05a16.83,16.83,0,0,1,.42-6.93,16,16,0,0,0,5.44,6.64,1.1,1.1,0,0,0,1.6-.63,66.17,66.17,0,0,1,2-6.95c2,3,4.69,3,7.15-.42a11.41,11.41,0,0,0,2.23,1.28A150.88,150.88,0,0,0,250.18,122.79ZM257.27,106a6.87,6.87,0,0,1-2.44-1.64,1.25,1.25,0,0,0-2.11,0q-1.13,3.74-4.92-.3a1.17,1.17,0,0,0-2.22,0,74.66,74.66,0,0,0-2.5,8,13.37,13.37,0,0,1-4.15-7.39,1.15,1.15,0,0,0-2.06-.26,17.92,17.92,0,0,0-2.15,8.5,21.26,21.26,0,0,1-5.63-5.07,1.52,1.52,0,0,0-2.54,0,17.13,17.13,0,0,0-2.51,4.63c-2.36-4.35-4.76-8.68-7.15-13a153.19,153.19,0,0,0,23.45,0c7.48-.62,15.5-1.55,22.78-4.1C261,98.8,259.08,102.35,257.27,106Z"/><path class="cls-2" d="M37.55,46.32c-4.89-10.13-9.9-20.72-15.6-30.42a.69.69,0,0,0-1.19.68C26,26.43,28.72,38.89,36,47.49,36.72,48.37,38,47.28,37.55,46.32Z"/><path class="cls-2" d="M68,79.05c-2.24-4.84-12.6-2.39-11.77,3.11.25,1.68,1.86,2.61,3.37,3.12.49,2,1.66,3.58,3.81,3.77,2.51.22,3.91-2.82,4.6-4.75A7.15,7.15,0,0,0,68,79.05Zm-9,2.72c-.17-.43-.14-.13,0-.55a1.91,1.91,0,0,1,.51-.66l.1-.08a10.9,10.9,0,0,0-.24,1.7L59.15,82S58.88,81.59,59,81.77Zm5.51,4.29c-1,1.57-2.18.94-3.07-.36l-.12-.2a1,1,0,0,0,.14-1.83A11,11,0,0,1,60.35,83a8.34,8.34,0,0,1,.08-3.11,5.92,5.92,0,0,1,4.08-.63,1.85,1.85,0,0,1,1.33,1.51C66.27,82.49,65.34,84.64,64.46,86.06Z"/><path class="cls-2" d="M63.58,54.24c-3.89.07-6.36,5.06-5.17,8.49.39,1.11,2.3,1.35,2.56,0,.34-1.78.48-4.65,2.5-5.44,1.55-.6,3.1,1.76,2.83,3.16a2.3,2.3,0,0,1-2.17,1.76c-1.63,0-.56-3.16-.32-3.86s-.8-1-1.11-.45c-1.05,2-2.11,5.4.83,6.27,2.16.63,4.43-1.1,5.12-3.09C69.75,57.95,66.67,54.18,63.58,54.24Z"/><path class="cls-2" d="M85.88,64.36a7.43,7.43,0,0,0-7.59-2.17c-3.63,1.27-3.67,5.68-1.76,8.48a1.1,1.1,0,0,0,.83.43,5.7,5.7,0,0,0,.68,1,4.91,4.91,0,0,0,6.4.78A5.7,5.7,0,0,0,85.88,64.36Zm-1.43,5.08c-.76,1.47-2.25,2.64-3.92,1.89a3.91,3.91,0,0,1-2.12-4,.45.45,0,0,0-.36-.52c0-.19,0-.37,0-.56a1.76,1.76,0,0,1,.89-1.45c1.2-.71,3.1-.22,4.41.63A3,3,0,0,1,84.45,69.45Z"/><path class="cls-2" d="M134.43,88.49a1,1,0,0,0-.73-.7c-2.33-.38-5.57.64-7.79,2-1-3-5.83-1.9-7.47-.23-3.8,3.89,1.73,9.29,4.52,11.61,1.39,1.15,3.53-.79,2.07-2l0,0a15.56,15.56,0,0,0,7-2.38C134.72,94.81,135.17,91.6,134.43,88.49Zm-11.3,8.93-.08,0c-1.87-1.74-3.88-4.17-2.58-6.1,1-1.52,2.83-.66,4.07-.22a.94.94,0,0,0,.23,0,1,1,0,0,0,1,.57c2.15-.53,4.39-2.18,6.71-2.07C133.2,95.23,127.72,96.81,123.14,97.42Z"/><path class="cls-2" d="M184.43,132.29c-.16-1-1.29-1.52-2-2.1-1.19-1-2.31-2.05-3.41-3.14-.54-.53-5.07-4.63-4.89-5.17s-.77-1-1.11-.45c-.92,1.42,2.33,4.66,3.09,5.53,1.26,1.44,2.59,2.82,4,4.15,1,1,2.22,2.48,3.72,2.23A.87.87,0,0,0,184.43,132.29Z"/><path class="cls-2" d="M196.61,122.9a22.84,22.84,0,0,0-4.27-3,50.43,50.43,0,0,1-7.24-6.32c-4.06-4-7.79-8.45-11.79-12.56-.44-.45-1.11.19-.71.68,4,4.86,7.67,9.88,11.92,14.5,2.84,3.08,7,7.88,11.44,8.22A.89.89,0,0,0,196.61,122.9Z"/><path class="cls-2" d="M196.76,112.56c-1.65-2-3.7-3.67-5.54-5.5-2.13-2.13-4.21-4.29-6.47-6.27a.82.82,0,0,0-1.17,1.14c1.94,2.31,3.91,4.57,5.93,6.8a30.67,30.67,0,0,0,5.88,5.57C196.51,115,197.55,113.51,196.76,112.56Z"/></g></g></svg>