<svg xmlns="http://www.w3.org/2000/svg" viewBox="0 0 143.26 162.69"><defs><style>.cls-1{fill:#d83a77;}.cls-2{fill:#25263a;}</style></defs><title>Asset 3gift</title><g id="Layer_2" data-name="Layer 2"><g id="Layer_1-2" data-name="Layer 1"><path class="cls-1" d="M32.78,127.53q-.37-12.71-.65-25.41c-.17-8.34-.3-16.68-.21-25,0-2.92.06-5.84.18-8.75,0-.63-.08-4,.15-4.25s.09-.77-.31-.72c-2.53.3-2.05,7-2.14,8.55-.47,8.3-.19,16.69-.08,25,.21,14.81-.39,30.14,1.21,44.88a1,1,0,0,0,2,0C33.43,137.12,32.92,132.23,32.78,127.53Z"/><path class="cls-1" d="M98.39,119.57a200.25,200.25,0,0,0-1.51-20.64C96.11,92,95.14,85,94.27,78.1c-.76-6.11-.94-12.31-2-18.38-.05-.32-.63-.33-.68,0-1.9,12.1,1,25.42,2.4,37.47.74,6.32,1.34,12.65,1.62,19S94.5,129.4,95,135.81a.93.93,0,0,0,1.8.23C98.88,131.13,98.43,124.8,98.39,119.57Z"/><path class="cls-2" d="M143,22.65c-7.94-16.51-23.67-12.27-31.64-.36-10.33-6.74-21.78-3-30.53,4.85l-2.71-.44A1.58,1.58,0,0,0,76,24.6c-.72.43-1.43.88-2.15,1.34-1.62-.31-3.23-.62-4.82-1C72.41,15.19,71,4.38,60.45,1,46.15-3.52,41.23,7.89,42.74,19.47c-9.12-7.8-21.21-12.29-28.33-4.14C8,22.62,12.87,32,19.48,36.91c-5.31,3.44-10.58,7-15.76,10.63-1.14.81,0,2.57,1.11,1.81,5.62-3.7,11.32-7.27,17.07-10.76a74.85,74.85,0,0,0,13.65,6.71c2.17.85,5.08,2.21,8,3.13-4.29,3.4-8.46,7-12.46,10.78A187.13,187.13,0,0,0,5.54,50.76a1.33,1.33,0,1,0-.74,2.56,254.75,254.75,0,0,1,25.35,9.26.35.35,0,0,0-.13.27c-1,15.14-.76,30.33-.76,45.5,0,11.62-1,23.88-.5,35.71-8.2-3.79-16.35-7.73-24.55-11.52,0-16.26-1.7-32.52-.93-48.79.35-7.36.86-14.66.66-22C3.83,58.05,4,52.5,1,49.9c-.25-.21-.79-.18-.85.21-.7,4.45.89,9.39.9,14,0,6.55-.54,13.12-.85,19.66-.77,16,1.62,32,2.21,48.07-.39,0-.64.54-.2.78l.24.13c0,.43,0,.86.05,1.29a.85.85,0,0,0,1.69,0c0-.11,0-.22,0-.34,8.16,4.46,16.36,8.91,24.69,13.09.16,2.38.36,4.74.69,7.07a.81.81,0,0,0,1.61,0c.26-1.86.46-3.74.61-5.63,1.13.56,2.25,1.13,3.38,1.67,0,.12,0,.24,0,.36a.57.57,0,0,0,1.1.16,229.44,229.44,0,0,0,30.58,12.2,3.46,3.46,0,0,0,2.1-2.45c1.37-17.17.54-34.26-.13-51.44-.23-5.72.63-13,.34-19.88a16.38,16.38,0,0,0,1.11-1.9,1.29,1.29,0,0,0-1.41-1.87,25.32,25.32,0,0,0-2.32-8.44,12.16,12.16,0,0,0-1.11-1.76.32.32,0,0,0,.15,0c9.24-2,15.62-8.27,22.33-14.54q2.25-2.09,4.52-4.14l1,.31c1.74,24.52,6.23,48.8,8.21,73.34-1.41,1.11-2.81,2.22-4.21,3.33-3.27-23.87-1-49.12-7.56-72.38-.33-1.18-2-.68-1.87.49,3.64,24.51,1.86,49.72,6.68,74a1.19,1.19,0,0,0,.06.13c-8.52,7.34-14.83,16.67-24.26,23.08a.86.86,0,0,0,.89,1.46c10.4-5.27,17.1-13.22,25.71-20.73C99,137.56,101,136,103,134.38c.84.22,1.85-.19,1.77-1.26V133c6.78-5.29,13.54-10.43,18.71-17.61,1.31-1.82-.55-3.47-2.34-3.38-2.94-23.19-2.17-46.42-4.53-69.65,6.77-2.76,2.45-12-2-17.13a37.7,37.7,0,0,1,3.43-4.59c7.89-8.51,16-5,21.29,4C140.71,26.94,144.18,25,143,22.65Zm-42.61-1.27c3.52-.18,6.56,1.85,9.12,4.09a28.94,28.94,0,0,0-1.92,4.92,11.12,11.12,0,0,0-.37,2.23,90.28,90.28,0,0,0-18.41-4.26l-4.17-.62A27.11,27.11,0,0,1,100.43,21.38ZM78.66,36.83l.89.38q7.48,3.57,1.18,4.93C78.37,41.12,78.07,39,78.66,36.83Zm-4.29-6.78c1.2.23,2.42.44,3.64.64a16.46,16.46,0,0,0-1.17,2.41,15.58,15.58,0,0,0-6.25-.52Zm-6.8-1.59c.59.17,1.18.32,1.78.47q-1.72,1.21-3.42,2.5A33.07,33.07,0,0,0,67.57,28.46ZM59.3,5c8.16,1.86,8.29,10.66,5.14,18.81A92.13,92.13,0,0,1,53.2,20.06c-.5-.21-1.19.38-.67.82A37.31,37.31,0,0,0,63.05,27c-2.21,4.43-5.27,8.3-8.32,10.32-.62-4-3.42-8.87-7.38-13.3,1.25-.68,2.49-1.38,3.74-2,2-1.05.15-3.87-1.75-2.85-1.27.68-2.51,1.42-3.78,2.12C43.85,11.7,47.13,2.24,59.3,5Zm-9.6,52.71A13.66,13.66,0,0,0,52.09,62,23.47,23.47,0,0,0,49,66.15c-4.15-1.53-8.26-3.13-12.35-4.76A125.78,125.78,0,0,0,52.27,48.17l.09,0C50.09,51.16,48.78,55.07,49.69,57.72Zm14.7,31.34c-7,4.65-15.71.31-16.71-9.54-.19-1.9.82-5.63,2.54-9.21,5.5,1.77,11.19,4,13,9C64.35,82.28,64.4,85.78,64.39,89.07Zm-48.05-68c2.39-11.36,15.12-5.61,24.92,2.57Q32.2,28.81,23.4,34.36C18.77,31.14,15.14,26.79,16.34,21.08ZM32.41,39.21a63.32,63.32,0,0,1-6.33-3.15q8.78-5.22,17.74-10.15l.64.61c1.69,4.62,4.4,8.7,7.94,11a.82.82,0,0,0,.42.13c0,.06,0,.12.06.18a.82.82,0,0,0,.16.31c-.22.09-.44.21-.66.28A2,2,0,0,0,51.92,42c-1.19.87-2.36,1.76-3.53,2.64-1.25-.39-2.57-.63-3.8-1A105.51,105.51,0,0,1,32.41,39.21ZM44.82,50.5c-3.3,3.44-6.48,6.92-9.51,10.36l-.61-.24a.86.86,0,0,0-.84-.33L33.07,60C36.86,56.67,40.8,53.54,44.82,50.5ZM32,145.53c.69-12.28-.42-25.07-.42-37.17,0-15.17.22-30.35-.76-45.5h0l2.34,1c-.23,13.62.47,27.23,1,40.84.57,14,.07,28.26.88,42.27Zm33.79,13.32a264.16,264.16,0,0,1-29.09-11.2c1.31-13,.11-26.65-.32-39.65-.48-14.47-.91-28.95-1.38-43.42l7.76,3.24c1.35.56,2.91,1.06,4.56,1.58-2,4.4-2.92,9.14-2.23,12.23C47.15,91,57,96.68,64.42,93.11c.09,7.5.36,15,.69,22.48C65.76,130,66.53,144.42,65.75,158.85Zm-.46-84.51a.25.25,0,0,0-.09.16c-3.2-4-8.48-5.58-13.29-7.26A20.24,20.24,0,0,1,54.36,64c2.86,1.79,6.32,1.47,9-2.61a1.59,1.59,0,0,0-.61-2.22c-3-1.53-5.87-.93-8.44.87Q52.9,58.53,53.1,54.3a9.88,9.88,0,0,1,3.18-5.23A92.3,92.3,0,0,1,72.06,54c3.46,1.5,6.78,3.83,10.43,4.83A180.32,180.32,0,0,1,65.29,74.34Zm19.77-18c-5.33-.83-10-4.37-15.1-6a111,111,0,0,0-11.26-3,4,4,0,0,0,1.5-.78l0,0c.2-.09.41-.19.61-.27a.92.92,0,0,0,.34-1.62c0-.12,0-.24,0-.36a55.77,55.77,0,0,0,9.08,3.07c5.88,1.67,11.31,4.55,16.94,6.93C86.52,54.93,85.79,55.62,85.07,56.32Zm4.88-4.67-.32.31c-4.74-1.84-9.31-4.09-14.08-5.88-5-1.85-10.14-2.49-15-4.44l-.06-.13-.08-.12C63.67,36,70,34.52,76.08,35.8c-.74,4.19.65,8.26,5.89,9.38a3.86,3.86,0,0,0,4.6-2.43C87.5,39.53,83,36.5,80.9,35a13.52,13.52,0,0,0-1.23-.74,23.39,23.39,0,0,1,1.85-3c8.89,1.31,17.94,2.32,26.06,5.61a11.22,11.22,0,0,0,1,2.81C101.6,40.21,94.65,47.28,89.95,51.65Zm27.35,63.91a86.11,86.11,0,0,1-12.89,12.11c-1.75-23.87-3.7-48.35-8.73-71.71a1.47,1.47,0,0,0-.58-2.07c1.37-1.2,2.73-2.41,4.14-3.57,3.84-3.17,8.45-4.81,12.28-7.8a5.82,5.82,0,0,0,3.85.26h0C114.11,66.54,110.89,92.36,117.29,115.55Zm-1.86-79A46,46,0,0,0,111,34.16,14.39,14.39,0,0,1,112.51,29C113.65,31.13,115.2,34.44,115.43,36.52Z"/></g></g></svg>