<svg xmlns="http://www.w3.org/2000/svg" viewBox="0 0 97.2 158.18"><defs><style>.cls-1{fill:#d83a77;}.cls-2{fill:#25263a;}</style></defs><title>Asset 10hat</title><g id="Layer_2" data-name="Layer 2"><g id="Layer_1-2" data-name="Layer 1"><path class="cls-1" d="M82.43,109q-1.09,1.05-2.24,2c.26-.28.53-.56.78-.87.41-.49-.21-1-.7-.66A59.38,59.38,0,0,1,66,117.13a54.19,54.19,0,0,0-5.64.65l-.24,0a1,1,0,0,0-.85.33,5.51,5.51,0,0,0-2,1.16,1.14,1.14,0,0,0-.33,1.13c-1.79.62-3.6,1.24-5.41,1.9a32.45,32.45,0,0,1-3.42-.52c-1-.21-1.43,1.23-.42,1.46l.87.17-.11,0c-.5.19-.29.95.22.78l1.64-.52c9.51,1.37,23.08-.48,29.36-7.44a.57.57,0,0,0,.13-.65,14.1,14.1,0,0,0,4.48-5.19A1.2,1.2,0,0,0,82.43,109Zm-27.7,13.46,3.15-.83c.1.12.22.24.35.41.35.44,1.08.09.81-.45a.66.66,0,0,1-.07-.25c1-.27,2.07-.55,3.11-.84,3.13.91,7.06-.2,10.81-2q1-.22,1.85-.49A43,43,0,0,1,54.73,122.47Z"/><path class="cls-1" d="M88.54,129.41a30.46,30.46,0,0,1-6.16,5.69,25.56,25.56,0,0,0,4.43-4.8c.64-.92-.82-1.9-1.55-1.14C77.13,137.7,65.84,141.09,55,144.8a1.14,1.14,0,0,0-.69.56.57.57,0,0,0,.05,1,1.11,1.11,0,0,0,1.23.53c1.48-.29,3-.6,4.48-.94,11.59-1.26,24.82-4.68,30-15.67A.86.86,0,0,0,88.54,129.41Z"/><path class="cls-1" d="M67.57,74.53C64,76.4,60.91,77.39,56.89,76.24a1,1,0,1,0-.54,1.85c3.87,1.23,9.83,1.34,12.27-2.55C69.05,74.86,68.2,74.2,67.57,74.53Z"/><path class="cls-1" d="M66.43,73.14c-2.4.44-4.83.65-7.25,1a.4.4,0,0,0,0,.78,18.15,18.15,0,0,0,7.64-.36A.72.72,0,1,0,66.43,73.14Z"/><path class="cls-1" d="M75,91a1.11,1.11,0,0,0-1.59-.71,19.67,19.67,0,0,1-7.66,2.79l-.46.05a16.94,16.94,0,0,1-2.68.06.57.57,0,0,0-.58.38,14,14,0,0,0-1.75.44,1.18,1.18,0,0,0,0,2.28,12.55,12.55,0,0,0,4.52.37,13.06,13.06,0,0,1-3.52.61c-1.37,0-1.78,2.07-.34,2.38,5.69,1.23,10.22-1.3,15-4a1.25,1.25,0,0,0,.32-2C77.56,92.75,76.53,90.74,75,91Z"/><path class="cls-1" d="M62.62,56.58c-2.24-.1-4.43.47-6.67.5a1.43,1.43,0,0,0-.87,2.57l-.46,0a1.5,1.5,0,1,0,0,3c1.33.1,2.67,0,4,0s2.23-1.64,1.12-2.55a1.49,1.49,0,0,0,.26-.37,16.87,16.87,0,0,0,3-.7A1.25,1.25,0,0,0,62.62,56.58Z"/><path class="cls-1" d="M57.55,44.25a51.66,51.66,0,0,0-2-6.12,42.71,42.71,0,0,0-2.44-9.93c-.44-1.1-2.34-1.07-2.3.3,0,.39,0,.79.07,1.18a.71.71,0,0,0-.52.82c0,.08,0,.16,0,.24h0a59,59,0,0,0,3.87,14.69c.38.92,2,1,2.11-.07A1,1,0,0,0,57.55,44.25Z"/><path class="cls-2" d="M78.47,83.49c-7.29-19.76-14.08-40-23-59.06l.08,0,.06,0c5,2,11,2,16.25,1a1.4,1.4,0,0,0-.17-2.78c-2.64-.06-5.26.22-7.88.28a12.57,12.57,0,0,0,4.38-1.31,1.55,1.55,0,0,0,.3-2.59,15,15,0,0,0,1.6-.76,1.29,1.29,0,0,0-.86-2.4,61,61,0,0,0-7.08,2.21,14.65,14.65,0,0,0,4.48-4,1.33,1.33,0,0,0,.14-1.27,16.05,16.05,0,0,0,1.16-1.76c.63-1.14-.52-2.69-1.8-1.93-2.89,1.71-4.94,4.44-7.36,6.79,0-.1-.05-.21-.1-.32.66-.9,1.29-1.84,1.89-2.77a29.22,29.22,0,0,0,5.5-5.23c1.14-1.52-1.15-3.24-2.47-2l-.21.19a1.67,1.67,0,0,0-.35-.34,1.32,1.32,0,0,0-2.2-1c-2.39,2.26-4.11,5.13-6,7.87-.31-.14-.63-.23-.95-.34l.06-.06c1.52-2.13,3.31-4,4.42-6.43,0,0,0-.06,0-.09.26-.36.51-.73.79-1.07a12.19,12.19,0,0,0,2-3C61.61.42,60.5-.26,59.7.1A9.13,9.13,0,0,0,56,4a1.48,1.48,0,0,0-.43.58c-.06.16-.14.3-.22.44a1.21,1.21,0,0,0-1.76,0,3.53,3.53,0,0,0-.3.48c0-.68,0-1.36,0-2-.08-1.58-2.57-1.75-2.57-.14,0,.29,0,.57,0,.85-.32-1-.64-2-1-3a1.48,1.48,0,0,0-2.89.59,41.6,41.6,0,0,0,2,8.85h0C46,8,43.19,5.58,40.45,3c-1.25-1.17-3.3.44-2.12,1.82s2.55,2.92,3.84,4.38L40.46,8c-1.29-.93-2.62-2.07-4.29-2.09-1,0-2.06,1.05-1.43,2.06.86,1.36,2.31,2.16,3.54,3.16,1.47,1.19,2.92,2.4,4.41,3.56l-.15-.08c-3.32-1.79-6.71-3.43-10-5.28A1,1,0,0,0,31.38,11a99.45,99.45,0,0,0,8.46,5.9c-2.78-.43-5.55-.88-8.29-1.45-1.17-.25-1.89,1.39-.65,1.78,2.4.76,4.83,1.42,7.27,2.06a38.23,38.23,0,0,1-4.8-.56c-.74-.14-1.14.79-.4,1.12a30.46,30.46,0,0,0,3.93,1.42c-1.49.34-3,.65-4.49.86-.74.11-.68,1.3.08,1.27a87.38,87.38,0,0,0,12.6-1.1l.55,0a6.13,6.13,0,0,0,1.43,1,1.18,1.18,0,0,0-.71.1c-3.88,2-8.11,4.39-9.91,8.52-.59,1.36,1.37,2.44,2.36,1.48,2.9-2.84,5.57-5.72,9-8a1.09,1.09,0,0,0-.07-1.84,6.78,6.78,0,0,0,1.24.44c-3.4,6.78-6.33,13.77-9.18,20.8a2.44,2.44,0,0,0-1.2,3c-1.9,4.72-3.8,9.45-5.79,14.13a1.84,1.84,0,0,0-.86,2Q30.59,66.93,29.19,70C21.59,86.22,12.57,101.57,6,118.14a2.55,2.55,0,0,0-1,2.62c-1.41,3.77-2.74,7.57-3.84,11.51a.92.92,0,0,0,.08.72,1.93,1.93,0,0,0-1.12,2.5C5.41,149,26.33,154.95,38.7,157.17c21.36,3.83,40.49-3.37,54-20.3a1.65,1.65,0,0,0,.29-.59c.86,2.3,4.79,1.46,4.12-1C92.4,117.67,84.76,100.53,78.47,83.49ZM52.65,25.67c2.23,7.14,4.73,14.2,7.34,21.23a3.85,3.85,0,0,0-.52.08,22.09,22.09,0,0,1-15.59-2C46.61,38.42,49.41,31.94,52.65,25.67ZM41.31,51.16c5.14,4.47,13.56,5.6,19.9,4.28A4.66,4.66,0,0,0,63,54.71q1.35,3.49,2.72,7a27.14,27.14,0,0,0-6,1A66,66,0,0,1,47,64.61c-3.67.11-6.84-1.58-10.18-2.71C38.34,58.34,39.83,54.75,41.31,51.16Zm-10.82,24c1.4-2.68,2.7-5.4,4-8.14,3.75,3.38,9.2,4.81,14.08,5.25,5.53.51,15.55.77,20.24-2.83l4.43,11a4.77,4.77,0,0,0-1.3-.07c-7.8.73-14.8,3-22.86,2.48-7-.43-13.14-3.25-19.94-4.48a2.28,2.28,0,0,0-.32,0Zm-4,7.7a2.79,2.79,0,0,0,.74.85c6.69,5,16.07,6.82,24.15,7.78,6.51.77,18.83.62,24.44-3.65.11-.08.19-.17.29-.25q1.8,4.53,3.56,9.08a4.67,4.67,0,0,0-2.57,1c-15.8,11.85-40.83,7.71-58.33,1a2.61,2.61,0,0,0-.46-.08C20.95,93.37,23.7,88.13,26.45,82.9ZM15.94,103.29a2.33,2.33,0,0,0,.27.26c14.41,9.05,54.2,18.72,66.27.7,1.2,3.24,2.39,6.48,3.52,9.73a4.41,4.41,0,0,0-3.54,1.86C74.31,126.65,62.13,130.09,49,130.9c-7.85.49-15.33.1-22.85-2.37-6.64-2.19-10.68-8-17.08-10.6C11.19,113,13.54,108.13,15.94,103.29Zm73.75,31.1c-12.92,13.87-27.32,21.1-46.59,19.1-11.78-1.22-34.14-7-39.56-19.69a1.59,1.59,0,0,0-.63-.74.92.92,0,0,0,.13-.21c1.19-3.32,2.49-6.59,3.84-9.84,6.42,6.35,10.37,12,19.61,15.23,7.93,2.76,17.37,2.52,25.63,1.81,11.65-1,31.1-5,36.84-17.19,1.23,3.86,2.42,7.75,3.5,11.66A1.9,1.9,0,0,0,89.69,134.39Z"/></g></g></svg>