<svg xmlns="http://www.w3.org/2000/svg" viewBox="0 0 116.02 82.08"><defs><style>.cls-1{fill:#d83a77;}.cls-2{fill:#25263a;}</style></defs><title>Asset 7spin</title><g id="Layer_2" data-name="Layer 2"><g id="Layer_1-2" data-name="Layer 1"><path class="cls-1" d="M30.48,37.84C10,27.44-5.39,74.85,24.77,74.69c1,0,1.32-1.61.25-1.75-5.07-.68-10.13-2.24-13-6.76C9.48,62.22,9.79,57,10.93,52.7c2.16-8.17,9.71-17.14,19-13.55A.72.72,0,0,0,30.48,37.84Z"/><path class="cls-1" d="M20,34a.47.47,0,0,0-.37.47A27.55,27.55,0,0,0,4.31,62.05c1.21,11.87,11.91,19,23.42,16.73,1.21-.24.89-2-.29-2-5.52,0-10.83-.36-15.18-4.12-3.52-3-5-7.78-5.33-12.29A25.66,25.66,0,0,1,21.37,36.11a.93.93,0,0,0,.52-1.28c8.89-.41,17.05,3.55,23,10.17,7.67,8.5,6.83,19.48-.58,27.71-.53.59.28,1.29.86.82C65.72,57.15,40.9,29.35,20,34Z"/><path class="cls-1" d="M30.14,50.27c-1.31-.72-3.49,0-4.78,1,.44-2.34,2.15-3.61,4.23-4.58a.27.27,0,0,0-.14-.5,6.53,6.53,0,0,0-5.93,5.23,22.19,22.19,0,0,0-.46,5,3.48,3.48,0,0,0,.63,2.36C26,61.72,30,55.71,30.75,54,31.28,52.74,31.55,51,30.14,50.27ZM26.25,56c.19-.07.14-.22,0-.45a3.32,3.32,0,0,1,.78-.54A1.8,1.8,0,0,1,26.25,56Z"/><path class="cls-1" d="M42,57.37c3.62-5.08,1.43-9.74-4.37-11.71-.66-.23-1.45.61-1,1.23a20.43,20.43,0,0,1,3.88,8.72A13.13,13.13,0,0,1,38.71,58c-3.26,3.42-8.48,6-13.27,5.8-.72,0-.91,1.12-.17,1.23,6.12.87,12.87-2.51,16.55-7.37l.07-.11A.54.54,0,0,0,42,57.37Zm-2.19-8.59a4.48,4.48,0,0,1,1.68,4.17A19.93,19.93,0,0,0,39.85,48.78Z"/><path class="cls-1" d="M60.92,46.32a43,43,0,0,0-3.33,10c-.11.65.86.93,1,.27.91-3.39,2.1-6.71,3.33-10C62.2,46,61.17,45.73,60.92,46.32Z"/><path class="cls-1" d="M63.13,43.79C63,47.14,61.53,49.95,60.41,53c-.14.39.52.64.69.28,1.36-3,2.6-6.15,2.65-9.51C63.75,43.41,63.15,43.42,63.13,43.79Z"/><path class="cls-1" d="M72.73,39.1c-2.08,3.82-4.45,7.72-5.68,11.92-.14.49.59.64.77.2,1.62-4.06,3.17-8.1,5-12.08C72.83,39.09,72.76,39.05,72.73,39.1Z"/><path class="cls-1" d="M81.05,29.69c-2,4.91-4.9,10.12-5.51,15.43-.08.66.89.65,1.1.14C78.7,40.34,80.05,35,81.82,29.89,82,29.41,81.23,29.25,81.05,29.69Z"/><path class="cls-1" d="M90.29,20.19c-3.05,5.63-6.42,12.44-7.68,18.72a.87.87,0,0,0,1.58.64C87.6,34,89.24,26.72,91.31,20.6,91.51,20,90.57,19.66,90.29,20.19Z"/><path class="cls-1" d="M95.43,14.28c-.86,5-3.3,9.65-4.07,14.65-.12.77,1,1.39,1.41.57a52,52,0,0,0,4-15C96.89,13.7,95.55,13.54,95.43,14.28Z"/><path class="cls-1" d="M105.81,5.79c0-.38-.67-.52-.74-.09-1.11,6.71-5.77,12-7.16,18.54-.2.93,1.17,1.55,1.63.65C102.52,19.12,106.38,12.48,105.81,5.79Z"/><path class="cls-1" d="M109,5.68c-.84,4.67-2.08,9.27-2.87,13.95a.66.66,0,0,0,1.27.33c1.72-4.45,2-9.46,2.48-14.17C109.93,5.31,109.09,5.21,109,5.68Z"/><path class="cls-2" d="M110.13.34a1.16,1.16,0,0,0-.86,1.2,1.27,1.27,0,0,0-1.43,0C98.23,8,90,16.07,81.78,24.23A303.33,303.33,0,0,1,54.23,48.77c-.14-.68-.3-1.36-.5-2-2.57-8.68-10.47-13.62-18.66-16a28.46,28.46,0,0,0-4.76-1,1.28,1.28,0,0,0-1.08-.89C13,26.52,1.21,39.15.07,54.75c-1.27,17.4,14.29,29.3,30.79,27a25.55,25.55,0,0,0,10.7-4.12C45,76.21,48,72.13,50.17,69.76a102,102,0,0,1,7.65-7.6.66.66,0,0,0,1.12-.2l.47-1.22c3.28-2.87,6.7-5.61,10.16-8.35a538.68,538.68,0,0,0,44-39,1.56,1.56,0,0,0,.51-1.14,1.3,1.3,0,0,0,.76-.61C116.72,7.66,117.1-1.92,110.13.34ZM27.82,79C12.8,80.35,2.31,67.86,3.49,53.62a24.67,24.67,0,0,1,5.37-13.5,1.21,1.21,0,0,0,1.87.44C19,32.27,26.4,29.86,37.42,34.68c7.25,3.17,12.83,9,13.85,17C53,65.38,41,77.85,27.82,79Zm31-21.8c-2,1.73-3.86,3.5-5.66,5.36a26.61,26.61,0,0,0,1.3-12.29,76.18,76.18,0,0,0,9.4-5.94C62.22,48.61,60.23,52.85,58.84,57.21Zm10.64-8.82c-2.61,2.11-5.24,4.22-7.82,6.39,1.44-3.86,2.8-7.76,3.91-11.68,3-2.29,5.87-4.77,8.67-7.34A48,48,0,0,0,69.48,48.39Zm3.39-2.75-.88.72c1.42-3.56,2.8-7.14,4-10.76a.7.7,0,0,0-.63-.9C78.76,31.56,82,28.28,85.31,25c-1.66,4.31-4.69,8.24-5.21,12.91-.06.55.53.84,1,.75C78.39,41,75.65,43.35,72.88,45.64Zm8.83-7.47C83,35.56,84,32.76,85,30c.83-2.09,2.13-4.53,2.1-6.86,2.61-2.6,5.24-5.18,7.93-7.68a140,140,0,0,0-5.57,14c-.21.67.33,1,.87,1Q86.08,34.4,81.71,38.17Zm19-17.73a1,1,0,0,0-.08.62q-4.62,4.36-9.34,8.61A149.58,149.58,0,0,0,96.52,14.8a.45.45,0,0,0-.16-.49,122.78,122.78,0,0,1,9.46-7.87c0,2.1-1.17,4.53-1.82,6.33C103.07,15.37,101.92,17.94,100.75,20.44Zm3.56-2.86c.66-1.67,1.23-3.36,1.73-5.1.56-1.93,1.27-4.6.62-6.67l.83-.62A9.22,9.22,0,0,0,111,11Q107.71,14.35,104.31,17.59ZM110,2.73a1.55,1.55,0,0,0,0-.19,1.4,1.4,0,0,0,.48.11C116.33,3,110.92,13.5,110,2.73ZM10.87,47.12A14.5,14.5,0,0,0,10.35,49c-2.83,4.57-3.11,10.68.17,17,2.56,4.92,7.66,9,13.3,9.53,7.72.67,14.25-4,19.13-9.55C61.95,44.35,18.88,24.72,10.87,47.12ZM44.09,57.4C41.28,69.95,24.56,78.7,14.81,68.52A17.9,17.9,0,0,1,10.09,54.3a22.4,22.4,0,0,0,1.69,6.58c.52,1.21,2.84,1.26,2.66-.34-.58-5.15-1.6-10.65,1.42-15.21a25.57,25.57,0,0,1,9.91-3.23c.5-.07.36-.84-.12-.83a22.07,22.07,0,0,0-6.1.93,17.28,17.28,0,0,1,8.16-1.3C36,41.38,46.21,47.93,44.09,57.4ZM20,45.35a10.39,10.39,0,0,0-2.77,12.93c-.46,5.5,3.76,9.59,8.8,11.47a10,10,0,0,0,12.61-5.68,15.5,15.5,0,0,0-2.51-16.22C32.06,43,25.11,41.52,20,45.35ZM33.89,66c-4.33,4.6-12.35.16-14.1-4.82,3,2.27,7.62,3.45,10.82,1.78s3.37-6,2.82-9-2.38-6.3-5.48-7.3c-2.88-.93-5.11,1.24-6.53,3.62a10.52,10.52,0,0,0-1.92,2A8.26,8.26,0,0,1,21.79,48c4.4-4.5,11-.09,13.49,4.27C37.58,56.41,37.14,62.56,33.89,66ZM19.78,55.73a9.06,9.06,0,0,1,.92-1.9,1.18,1.18,0,0,0,1.47-.32A14.05,14.05,0,0,1,25.07,50a10.23,10.23,0,0,1,1.45-.53,2.27,2.27,0,0,1,1.63.74C29.94,52,30.53,55,30.38,57.39c-.22,3.56-3.27,3.51-6,2.57A7.28,7.28,0,0,1,19.78,55.73Z"/></g></g></svg>