<svg xmlns="http://www.w3.org/2000/svg" viewBox="0 0 62.71 111.48"><defs><style>.cls-1{fill:#25263a;}</style></defs><title>Asset 8sprinkler</title><g id="Layer_2" data-name="Layer 2"><g id="Layer_1-2" data-name="Layer 1"><path class="cls-1" d="M51.76,54.64c.51.75-.71,1.36-1.22.68A200.3,200.3,0,0,1,38.88,37.4c-.38-.65.64-1.18,1-.57C43.65,42.91,47.75,48.73,51.76,54.64ZM29.39,33l-.56,1c-2,6.55-4.26,13-6.32,19.56-.22.69-1.33.42-1.14-.3,1.35-5.06,3.12-10,4.9-14.9C22.87,43.91,19,49.52,14,53.47c-.75.59-1.77-.28-1.1-1,5.61-6.49,10.92-12.73,15.41-20.08a.63.63,0,0,1,.2-.2l.4-1.15a.6.6,0,0,1-.11-.1l-.15-.19a.62.62,0,0,1-.91.44l-.78-.42c-.13,0-.26.12-.39.19l.14.08a.53.53,0,0,1-.42,1l-.88-.33A13.38,13.38,0,0,0,24,32.77a.72.72,0,0,1,.46,1.2c-4,4.35-5.89,9.69-9.12,14.52-.49.73-1.89.31-1.56-.63a37.79,37.79,0,0,1,4.55-8.73,18.92,18.92,0,0,1-2.53,2.27c-.67.49-1.57-.58-.92-1.14a31,31,0,0,0,2.58-2.58c1.79-2.36,3.57-4.74,5.46-7q-1.28-.54-2.54-1.14l-.26.13-.08.08,1.2.37a.55.55,0,1,1-.3,1l-1.88-.41A135.45,135.45,0,0,1,8.87,39.86c-.43.35-1.06-.19-.65-.61q1.74-1.81,3.51-3.6a43.27,43.27,0,0,0-10.3,6.9c-.76.69-1.94-.36-1.18-1.13a27.51,27.51,0,0,1,5-4,.64.64,0,0,1,.25-.46,68.18,68.18,0,0,1,10.69-6.9A47.21,47.21,0,0,1,3.41,25a.51.51,0,0,1,.54-.88c4.43,2.51,9.25,3.67,14.07,5l.64-.3.11-.1c-3.53-1.74-7-3.66-10.49-5.35-.65-.31-.06-1.19.56-.91,2.33,1.06,4.73,2.08,7.11,3.13a28.24,28.24,0,0,1-5.2-4.07c-.31-.31.17-.74.48-.46a32.25,32.25,0,0,0,8.72,5.37A88.48,88.48,0,0,1,9.39,18c-.5-.47.26-1.15.75-.72a101,101,0,0,0,11.57,8.63L23,24.67C17.4,18.37,11.74,12.2,5.68,6.28,5.11,5.73,6,5,6.54,5.46A110.91,110.91,0,0,1,20,18.4a21.17,21.17,0,0,1-2.42-8.06c0-.31.52-.38.56-.07,1,6.66,5.73,11.47,9.46,16.78,0-.61.1-1.22.18-1.82-2-3.55-4.42-6.81-6.7-10.18-.37-.54.54-1,.89-.5,2,3.05,4.21,6,6.06,9.18.17-.88.36-1.77.58-2.64C26.24,15.3,24.25,9.35,21.86,3.56c-.21-.51.69-.85.9-.36,2.23,4.92,4.43,9.89,6.3,15,.41-1.72.91-3.4,1.47-5.08.05-.78.11-1.57.14-2.35a.59.59,0,0,1,.86-.49c1.23-3.31,2.62-6.57,4-9.83.3-.74,1.57-.46,1.28.34-1.54,4.33-3.43,8.51-5,12.82,0,.32,0,.63-.05.94l0,0a.62.62,0,0,1,.08-.52A42.48,42.48,0,0,1,41.42,3.46a.56.56,0,0,1,.81.77c-3,3.59-6.59,6.55-9.11,10.51a.72.72,0,0,1-1,.19.92.92,0,0,1,.07.5A35.71,35.71,0,0,1,31,20.22q-.2,1.19-.43,2.38l.05.16a.48.48,0,0,1-.19.6l-.34,1.72a.4.4,0,0,1-.46.34,19.45,19.45,0,0,0-.36,2.79.79.79,0,0,1-.46.7c.17.26.32.53.48.8.13-.39.27-.78.4-1.18s.78-.24.66.17c-.2.7-.4,1.4-.61,2.09h0c-.15.5-.29,1-.44,1.5A.56.56,0,0,1,29.39,33Zm-1.7-3.44-1.87-2.38a.6.6,0,0,1-.7-.13l-1.29-1.45c-.31.37-.62.75-.94,1.12q2.25,1.45,4.54,2.86Zm4.93-12.47A99.16,99.16,0,0,1,29.78,27.2c-.3.83,1.06,1.16,1.36.36A99.44,99.44,0,0,0,34,17.41.7.7,0,0,0,32.62,17.06ZM61.94,32l-1.25-.31a.73.73,0,0,1-1,.3c-.55-.31-1.09-.63-1.63-1-3-.82-6-1.71-9.12-2.36a.44.44,0,0,1-.34-.63l-1.09.27a74,74,0,0,1,14.07,7.46A.62.62,0,0,1,61,36.84l-1.31-.77a.68.68,0,0,1-.58.09,120.1,120.1,0,0,1-12.95-4.6c-.67-.26-.39-1.29.3-1,2.88,1,5.75,2,8.64,2.94A83.55,83.55,0,0,0,43.55,28c-.46.53-.91,1.08-1.38,1.61.91.76,1.84,1.5,2.78,2.22q1.7.87,3.38,1.76a.42.42,0,0,1,.52-.19c3,1.18,6,2.32,8.36,4.56a.48.48,0,0,1,.12.18c1,.56,2,1.14,3,1.77a.51.51,0,0,1-.41.93,41.12,41.12,0,0,1-8.49-4l.89.71c.54.44-.24,1.09-.75.72-2.06-1.52-4.07-3.12-6-4.76-2.42-1.34-4.84-2.65-7.32-3.88.67.81,1.34,1.63,2,2.47a.63.63,0,0,1,.87.07c3.1,3.28,6,6.72,9.25,9.9,2.95,2.91,6.24,5.31,9.33,8,.54.48-.17,1.12-.71.88-5.34-2.35-9.64-7-13.6-11.71.93,1.46,1.81,2.95,2.61,4.46.25.48-.36,1-.76.72.16.34.32.67.47,1,.27.63-.81,1-1.11.45a133.92,133.92,0,0,0-9.39-14.72c-.49.16-1.13-.16-.9-.76,0-.1.09-.2.13-.3l-.32-.43h0c-.33.39-1.06-.11-.75-.55.17-.23.32-.47.47-.7l-.69-.33c-.52-.24,0-.93.44-.72l.72.32A35.87,35.87,0,0,0,40,18.69C38.4,21,36.77,23.21,35,25.41c-.34.79-.7,1.59-1.09,2.37a.89.89,0,0,1,.44.82c-.07,1.4-.12,2.79-.13,4.18.06.36.12.72.19,1.08l.05,0a99.4,99.4,0,0,1,9.13,12.62c.44.76-.71,1.34-1.18.66-2.5-3.58-4.86-7.24-7.43-10.77,1.49,5.82,4.13,11.35,5.93,17.14a.65.65,0,0,1-.64.88c.68,1.88,1.36,3.77,2,5.68.18.54-.67.86-.94.38A74.81,74.81,0,0,1,35.7,46.75c.1.82.19,1.63.25,2.45a173.34,173.34,0,0,1,.24,20.46c-.59,13.65-1.51,27.26-1.91,40.92a1,1,0,0,1-2,0c0-2.2,0-4.41,0-6.61,0-10.93,0-21.88-.1-32.81C32.1,60.8,31.57,50.4,31.65,40c-.45,4.8.26,9.64-.22,14.54a1,1,0,0,1-1.94,0c-.81-6.72-1.26-14.12,1.09-20.58a1.15,1.15,0,0,1,1.24-.74c0-.47,0-.94,0-1.41a.62.62,0,0,1,0-.13,26.54,26.54,0,0,1,.36-3.39.84.84,0,0,1,.47-.63.55.55,0,0,1,0-.06c.45-1.17.85-2.35,1.22-3.54a.67.67,0,0,1-.06-.71c.25-.51.48-1,.72-1.54.38-1.37.73-2.74,1.05-4.12l-.31.33c-.5.57-1.36-.23-.86-.82s1.11-1.26,1.7-1.84q.18-.81.36-1.61c.15-.71,1.22-.71,1.55-.2l.22-.57a.73.73,0,0,1,1.18-.25,12.77,12.77,0,0,1,2.42-1.15c.17-.61.34-1.22.54-1.83a.61.61,0,0,1,1.17.31c-.06.36-.13.73-.2,1.1l.22,0q1.12-1.73,2.23-3.47c.31-.49,1.12-.07.82.46-.57,1-1.15,2-1.75,2.93.39.22.41.95-.13,1-.21,0-.4.09-.6.14-.48.76-1,1.53-1.44,2.28a53.79,53.79,0,0,1-1.5,5.61C43,16.82,44.55,13.4,46.15,10c.29-.61,1.37-.2,1.15.46a66.86,66.86,0,0,1-3,7.34c.57-.25,1.36.29,1,1-.17.29-.35.56-.52.84a.64.64,0,0,1,.15.18C46.66,18,48.34,16,50,14c.36-.43,1.13.12.81.59a65.73,65.73,0,0,1-5.48,6.94c.51.21,1,.41,1.53.6,3.3-4.38,6.51-8.82,10-13,.38-.46,1.22.13.87.64q-4.58,6.59-9.65,12.84c2.4.84,4.84,1.52,7.3,2.17l1.28-.57c.42-.2.83.4.38.63l-.5.24,3.33.86c.84.22.46,1.37-.35,1.22-1.71-.3-3.42-.67-5.11-1.1l-.44.19c1.71,1.14,3.39,2.31,5,3.52,1.11.32,2.21.67,3.3,1.07A.6.6,0,1,1,61.94,32ZM33.87,55.68q.16,9.38.2,18.77c.1-2.12.18-4.24.22-6.36s.06-4.35.06-6.54C34.2,59.59,34,57.63,33.87,55.68Zm7-40.39q.28-1.05.56-2.1a15,15,0,0,0-2.19,1.29,57.83,57.83,0,0,1-2.55,6.34c-.09.3-.18.59-.28.88Q38.73,18.53,40.9,15.29Zm5.08,8c-.55-.23-1.1-.46-1.64-.7-.38.41-.76.83-1.16,1.23a.69.69,0,0,1-.72.19c-1,1.55-2.07,3.08-3.24,4.52a.82.82,0,0,1-.45.29c.74.34,1.48.7,2.22,1a.43.43,0,0,1,.09-.39c.51-.61,1-1.22,1.5-1.84l-.51-.19a.53.53,0,1,1,.29-1l.93.31C44.21,25.64,45.1,24.48,46,23.32Zm5.31,3.13c-1-.7-2-1.39-3-2.06a.82.82,0,0,1-.25-.26l-.94-.35c-.93,1.12-1.85,2.24-2.8,3.35q1.1.38,2.19.8l.09,0A46,46,0,0,0,51.29,26.45Zm3.2,2.23L52.07,27c-.79.28-1.59.55-2.4.78C51.28,28,52.89,28.34,54.49,28.68ZM51.56,22a56.7,56.7,0,0,0,8.13-5.54c.52-.44-.17-1.21-.71-.88-2.77,1.66-5.42,3.5-8.22,5.1C49.85,21.15,50.69,22.45,51.56,22Z"/></g></g></svg>