<svg xmlns="http://www.w3.org/2000/svg" viewBox="0 0 126.55 120.62"><defs><style>.cls-1{fill:#d83a77;}.cls-2{fill:#25263a;}</style></defs><title>Asset 4tie</title><g id="Layer_2" data-name="Layer 2"><g id="Layer_1-2" data-name="Layer 1"><path class="cls-1" d="M58.89,48.89c.55-1.09,1.2-2.59.28-3.46a3.39,3.39,0,0,0-3-.58,1.15,1.15,0,0,0-.66.15c-.78-.06-1.4.23-1.32,1.28a2.47,2.47,0,0,0,.12.56,1.18,1.18,0,0,0-.83.85,1.4,1.4,0,0,0,0,.45,12.89,12.89,0,0,0-1.29,4.77,1.35,1.35,0,0,0,2,1.11c.57-.39,1.26-.84,1.89-1.36a3.43,3.43,0,0,0,1-.3,1.22,1.22,0,0,0,1.08-.9,1.57,1.57,0,0,0-.2-1.13,1.28,1.28,0,0,0,.88-1.43Z"/><path class="cls-1" d="M114.27,73.67c-7.77,8.06-19.8-7.66-25-12.78C84.52,56.22,75,45,67.19,49a.65.65,0,0,0,.52,1.18C79,46.48,107.19,92,115.59,74.64A.83.83,0,0,0,114.27,73.67Z"/><path class="cls-1" d="M86,9.11c-5.91-5-15.75-5.78-22.37-1.91-9.9,5.78-8.51,19.38-8.2,29a.1.1,0,0,0,.17,0c2.16-3.12,1.45-7.15,1.24-10.76-.34-5.78,1-10.9,5.05-15.18C68.75,3,77.78,7.22,85.35,10.2A.66.66,0,0,0,86,9.11Z"/><path class="cls-1" d="M49.09,43.52c-3.56,2.25-6.41,5.6-9.89,8a50.56,50.56,0,0,1-12.46,6.27c-.45.16-.4.87.12.83A27.36,27.36,0,0,0,39.18,54.4c3.92-2.32,9-5.61,11.1-9.74A.85.85,0,0,0,49.09,43.52Z"/><path class="cls-1" d="M51.91,55.49C48.36,63.61,48.23,73,47.42,81.7c-.9,9.78-2.42,19.46-7.23,28.16-.49.89.77,1.47,1.34.74,5.39-6.88,6.14-16.13,7.09-24.52,1.16-10.2,1.83-20.36,3.87-30.44A.3.3,0,0,0,51.91,55.49Z"/><path class="cls-2" d="M124.59,68.88c-2,.42-3.94.86-5.91,1.27a8,8,0,0,0,.21-1.91c.54-.41,1.08-.83,1.58-1.27,1.4-1.22-.2-2.82-1.61-2.63l-.39.05a1.41,1.41,0,0,0-1,.72c-6.85,4.37-13,6.35-19.69-.21-4.51-4.42-7.07-10.35-11.78-14.73-6.65-6.18-15.11-6.85-22.5-2.35a6.92,6.92,0,0,0-1.31-2.39c11.76-4.56,23-13.95,27-26C92.73,8.8,83.68-.85,73.33.06,62.79,1,56.77,9.81,53.67,18.95,51.61,25,50.13,36.3,55.35,41.6a5.57,5.57,0,0,0-4.9,2l-.51.11a.91.91,0,0,0-.5-1.2c-9.84-5.1-24.38-12.79-35.93-10.69C5.42,33.3-1.87,39.36.43,48.52c6,23.72,32.92,12.16,49.07,2.57a1.57,1.57,0,0,0,.88.74A6.89,6.89,0,0,0,50.84,53c0,.09.1.16.15.24-5.92,5.41-6.83,13.43-6.9,21.54-.06,7.55.63,14.47-1.24,22-2.42,9.71-8.45,13.74-15.21,20-1.16,1.07.61,2.65,1.73,1.65.2-.19.41-.35.62-.53A9.48,9.48,0,0,0,36.83,115c.05,1.67.07,3.34,0,5a.64.64,0,0,0,1.08.42c6.67-8.12,10.64-17.61,13.11-27.76,3-12.34-2-26,6.24-36.77,0-.07.08-.13.12-.19a9.22,9.22,0,0,0,3-1.24,1,1,0,0,0,.78,0c10-5.2,19.74,7.56,25.65,14.11a49.09,49.09,0,0,0,15.64,12.14c6.34,3,16.51,4.49,18.2-3.18,1.9-2,3.72-4,5.5-6.09A1.54,1.54,0,0,0,124.59,68.88ZM4.45,39.67c3.63-6.46,13.39-5.2,19.2-3.94,1,.23,2.08.52,3.09.83C15.43,34.16,3.9,34.49,2.94,46.27A16.3,16.3,0,0,0,3,49.53,14,14,0,0,1,4.45,39.67Zm1,5C8.9,28.81,34,43.85,44.85,43.63c.93.27,1.86.49,2.81.69a75.52,75.52,0,0,0-14.22,5.92c-3.27,1.7-6.39,3.65-9.59,5.46C14.14,61.18,3,56.06,5.45,44.72Zm43.45,3.16c-8.61,5.54-20.46,12.33-30.5,12.38,4.13-.86,7.75-2.8,11.63-5.06A84.49,84.49,0,0,1,49,47,8.48,8.48,0,0,0,48.89,47.88Zm6.59-24.56c1.45-7.46,5.15-14.59,11.86-18.41,7.4-4.2,14-1.68,17.07,3.62C80.31,4.68,75.15,4.07,69.9,6,55.74,11.13,57.05,29.59,58.5,41.43a.93.93,0,0,0,.07.21C54.91,35.7,54.08,30.55,55.48,23.32ZM48.2,84.92a68.31,68.31,0,0,1-2.91,19.47A44.15,44.15,0,0,1,40,115.79c-2.85,4.62-1-2.71-.92-3.92a.93.93,0,0,0-.65-1,24.22,24.22,0,0,0,2.68-3.06c3.11-4.26,4.86-11,5.39-16.1C47.7,80,43.07,63.86,52.31,54.79c.11.08.22.15.34.22C46.31,64.06,48,74.22,48.2,84.92Zm9.45-33A3.66,3.66,0,0,1,55,52.5a1,1,0,0,0-1.31-1.3l-.12.09A4.43,4.43,0,0,1,53,49c1.16-.74,2.25-1.44,3.22-2.1a1.59,1.59,0,0,0,.58-.7c1.48.78,2.83,2.17,2.88,3.43C59.71,50.51,58.67,51.39,57.65,52Zm2.59-8.42c-.31-.22-.63-.43-1-.62a.49.49,0,0,0,0-.2c-.16-.25-.29-.48-.44-.72a.92.92,0,0,0,1.61-.58c.11-8.69-1.17-17.66,2.73-25.77C66.22,9.27,74,5.77,80.51,8.82c4.71,2.2,4.07,8.36,4.33,12.76-.13.32-.27.64-.43,1C80,31.63,69.91,40.06,60.23,43.55ZM84.61,59.92c-5-5.19-13.75-12.44-21-9.42a4.74,4.74,0,0,0,.11-2c8.38-2.36,15.34-1,21.88,5.26,5.08,4.85,7.47,11.57,13,16.09,5.23,4.31,11.62,3.49,17,.58l-.47,1.23c-.42,1.08.83,1.8,1.72,1.64l.57-.1a1.81,1.81,0,0,0-.41.75C112.67,90.19,88.73,64.18,84.61,59.92Z"/></g></g></svg>